<svg xmlns="http://www.w3.org/2000/svg" xmlns:xlink="http://www.w3.org/1999/xlink" id="Layer_1" viewBox="0 0 166 166"><style>.st0{fill:#fff}</style><circle cx="83" cy="83" r="80.6"/><circle cx="83" cy="83" r="74.4"/><path d="M83 159c-41.9 0-76-34.1-76-76S41.1 7 83 7s76 34.1 76 76-34.1 76-76 76zm0-148.8c-40.1 0-72.8 32.7-72.8 72.8 0 40.1 32.7 72.8 72.8 72.8 40.1 0 72.8-32.7 72.8-72.8 0-40.1-32.7-72.8-72.8-72.8z" class="st0"/><path d="M45.5 27.8c.8-.2 1.6-.2 2.4-.1.8.2 1.4.5 2.1.9.6.4 1.2 1 1.7 1.6.6.8 1 1.6 1.2 2.4.2.8.3 1.6.1 2.3-.1.8-.4 1.5-.8 2.1-.4.7-1 1.3-1.7 1.8s-1.5.9-2.2 1.1c-.8.2-1.5.3-2.3.2-.8-.1-1.5-.4-2.2-.8-.7-.5-1.3-1.1-1.9-1.8-.5-.7-.9-1.5-1.1-2.2-.2-.8-.3-1.5-.1-2.3.1-.8.4-1.5.8-2.1.4-.7 1-1.3 1.7-1.8.6-.7 1.4-1.1 2.3-1.3zM44 32.1c-.1.3-.2.7-.1 1s.1.7.3 1.1c.2.3.4.7.6 1 .2.3.5.6.8.9.3.3.6.5.9.6.3.2.7.2 1 .2.4 0 .7-.2 1.1-.4.6-.5.9-1.1.9-1.8-.1-.7-.4-1.5-1-2.3-.2-.3-.5-.6-.8-.9-.3-.3-.6-.5-.9-.6-.3-.1-.7-.2-1-.2-.3 0-.7.2-1 .4-.4.4-.7.7-.8 1zm15.5.5.2-12.4 3.7-1.2 7.7 9.7-3.6 1.2-.9-1.3-3.6 1.2.1 1.6-3.6 1.2zm3.1-9.7.2 4.3 2.3-.8-2.5-3.5zm13.7-6.7 3.8-.1.1 7c0 .3 0 .6.1.9 0 .2.1.5.3.7.1.2.3.3.6.4.2.1.6.2.9.1.6 0 1.1-.2 1.4-.6.3-.4.4-.9.4-1.6l-.1-7 3.8-.1.1 6.6c0 1.9-.4 3.2-1.3 4.1-.9.9-2.3 1.3-4.2 1.4-.9 0-1.7-.1-2.4-.2-.7-.2-1.3-.5-1.8-.9s-.8-1-1.1-1.6c-.3-.7-.4-1.5-.4-2.5l-.2-6.6zm20.5 1.1 10.2 3-.9 2.9-3.3-1-2.4 8.2-3.7-1.1 2.4-8.2-3.3-1 1-2.8zm12.3 16.6 6.5-9.7 3.2 2.1-2.2 3.3 3 2 2.2-3.3 3.2 2.1-6.5 9.7-3.2-2.1 2.5-3.7-3-2-2.5 3.7-3.2-2.1z" class="st0"/><defs><circle id="SVGID_1_" cx="83" cy="83" r="49.8"/></defs><clipPath id="SVGID_2_"><use xlink:href="#SVGID_1_" overflow="visible"/></clipPath><g style="clip-path:url(#SVGID_2_)"><path d="m38.475 108.907 70.214-70.217.354.354-70.215 70.217zM44.323 114.691l70.214-70.217.354.354-70.215 70.217zM50.241 120.546l70.215-70.217.353.353L50.595 120.9zM56.019 126.4l70.214-70.217.354.354-70.214 70.217zM61.938 132.255l70.214-70.217.354.354-70.215 70.217zM67.786 138.181 138 67.964l.354.354-70.215 70.217zM73.634 143.964l70.214-70.217.354.354-70.215 70.217zM79.481 149.89l70.215-70.217.353.354-70.214 70.217zM15.083 85.488l70.214-70.217.354.354-70.215 70.217zM20.931 91.272l70.215-70.217.353.354-70.214 70.217zM26.78 97.198 96.993 26.98l.353.353-70.214 70.217zM32.627 102.981l70.214-70.217.354.354-70.215 70.217z" class="st0"/><path d="m56.063 39.02.354-.354 70.217 70.214-.354.354zM50.208 44.938l.354-.354 70.217 70.215-.354.354zM44.354 50.716l.354-.354 70.217 70.215-.354.353zM38.5 56.634l.353-.353 70.217 70.214-.354.354zM32.644 62.412l.354-.354 70.217 70.214-.354.354zM26.79 68.33l.353-.353 70.217 70.215-.354.353zM20.935 74.107l.353-.353 70.217 70.214-.353.354zM15.08 80.026l.353-.354 70.217 70.215-.353.353zM79.483 15.629l.353-.354 70.217 70.215-.353.353zM73.557 21.477l.353-.354 70.217 70.215-.353.353zM67.773 27.325l.353-.354 70.217 70.214-.353.354zM61.917 33.242l.354-.353 70.217 70.214-.354.354z" class="st0"/></g><path d="M59.4 112.5v-9.2l8.4-7.6C82 82.8 89 75.5 89.2 67.9c0-5.3-3.2-9.5-10.7-9.5-5.6 0-10.5 2.8-13.9 5.4l-4.3-10.9c4.9-3.7 12.5-6.7 21.4-6.7 14.8 0 22.9 8.6 22.9 20.5 0 10.9-7.9 19.7-17.4 28.1l-6 5v.2h24.6v12.5H59.4z" style="stroke:#000;strokeWidth:6;stroke-miterlimit:10"/><path d="M59.4 112.5v-9.2l8.4-7.6C82 82.8 89 75.5 89.2 67.9c0-5.3-3.2-9.5-10.7-9.5-5.6 0-10.5 2.8-13.9 5.4l-4.3-10.9c4.9-3.7 12.5-6.7 21.4-6.7 14.8 0 22.9 8.6 22.9 20.5 0 10.9-7.9 19.7-17.4 28.1l-6 5v.2h24.6v12.5H59.4zm61.1 25.7c-.8.2-1.6.2-2.4.1-.8-.2-1.4-.5-2.1-.9-.6-.4-1.2-1-1.7-1.6-.6-.8-1-1.6-1.2-2.4-.2-.8-.3-1.6-.1-2.3.1-.8.4-1.5.8-2.1.4-.7 1-1.3 1.7-1.8s1.5-.9 2.2-1.1c.8-.2 1.5-.3 2.3-.2.8.1 1.5.4 2.2.8.7.5 1.3 1.1 1.9 1.8.5.7.9 1.5 1.1 2.2.2.8.3 1.5.1 2.3s-.4 1.5-.8 2.1c-.4.7-1 1.3-1.7 1.8-.6.7-1.5 1.1-2.3 1.3zm1.5-4.3c.1-.3.2-.7.1-1 0-.4-.1-.7-.3-1.1-.2-.3-.4-.7-.6-1-.2-.3-.5-.6-.8-.9-.3-.3-.6-.5-.9-.6-.3-.2-.7-.2-1-.2-.4 0-.7.2-1.1.4-.6.5-.9 1.1-.9 1.8.1.7.4 1.5 1 2.3.2.3.5.6.8.9.3.3.6.5.9.6s.7.2 1 .2c.3 0 .7-.2 1-.4.4-.4.7-.7.8-1zm-15.5-.5-.2 12.4-3.7 1.2-7.7-9.7 3.6-1.2.9 1.3 3.6-1.2-.1-1.6 3.6-1.2zm-3.1 9.7-.2-4.3-2.3.8 2.5 3.5zm-13.7 6.7-3.8.1-.1-7c0-.3 0-.6-.1-.9 0-.2-.1-.5-.3-.7-.1-.2-.3-.3-.6-.4-.2-.1-.6-.2-.9-.1-.6 0-1.1.2-1.4.6-.3.4-.4.9-.4 1.6l.1 7-3.8.1-.1-6.6c0-1.9.4-3.2 1.3-4.1.9-.9 2.3-1.3 4.2-1.4.9 0 1.7.1 2.4.2.7.2 1.3.5 1.8.9s.8 1 1.1 1.6c.3.7.4 1.5.4 2.5l.2 6.6zm-20.5-1.1-10.2-3 .9-2.9 3.3 1 2.4-8.2 3.7 1.1-2.4 8.2 3.3 1-1 2.8zm-12.3-16.6-6.5 9.7-3.2-2.1 2.2-3.3-3-2-2.2 3.3-3.2-2.1 6.5-9.7 3.2 2.1-2.5 3.7 3 2 2.5-3.7 3.2 2.1z" class="st0"/></svg>