<svg xmlns="http://www.w3.org/2000/svg" fill="#1664ff" viewBox="0 0 512 512"><path d="M407.1 291.8h-17.8c.6-4.5.9-9 .9-13.6 0-59.1-47.9-106.9-107.1-106.9S176 219.2 176 278.2c0 4.6.3 9.1.9 13.6h-70c-29.8 0-54.1-22-54.1-49.1 0-12 4.9-23.6 13.8-32.6 5.8-5.9 7.5-14.6 4.3-22.2-4.9-11.6-7.3-23.6-7.3-35.7 0-54.8 48.5-99.4 108.1-99.4 44 0 82.9 24.5 100 61.8 7.9 17.1 25.4 11.9 30.4 8.4 11.1-7.7 24.2-11.8 38.1-11.8 34.6 0 62.5 25.6 62.7 57.1.1 19.7 5.8 24.6 16 26.6 24.5 4.9 42.3 25.1 42.3 47.9 0 27-24.3 49-54.1 49zm-124 52.6c-36.6 0-66.2-29.6-66.2-66.1 0-36.5 29.6-66.1 66.2-66.1s66.2 29.6 66.2 66.1c0 36.5-29.6 66.1-66.2 66.1zm160.2-184.7c-4.6-50-49.1-89.4-103.2-89.4-14.5 0-28.6 2.8-41.6 8.3-26.8-41-74.4-66.6-126.8-66.6C89.6 12 22.8 74.9 22.8 152.2c0 13.4 2.1 26.6 6.1 39.5-11 14.9-16.9 32.7-16.9 51.1 0 49.5 42.6 89.8 94.9 89.8h84c1.1 1.8 2.2 3.6 3.4 5.4L70.8 461.4c-8 8-8 20.9 0 28.8 4 4 9.2 6 14.4 6 5.2 0 10.4-2 14.4-6l8.7-8.7 13.9 13.9c12.5 12.5 24.9 4 28.9 0 8-8 8-20.9 0-28.8l-13.9-13.9 23.3-23.2 13.9 13.9c10.2 10.2 24.9 4 28.9 0 8-8 8-20.9 0-28.8l-13.9-13.9 33.8-33.8c17.1 11.6 37.7 18.3 59.9 18.3 39.2 0 73.6-21.1 92.2-52.6h31.8c52.3 0 94.9-40.3 94.9-89.8 0-36.7-23.9-69.4-58.7-83.1z"/></svg>