<svg xmlns="http://www.w3.org/2000/svg" width="68" height="68" fill="none"><path fill="#FFF7E8" d="M34 68c18.778 0 34-15.222 34-34S52.778 0 34 0 0 15.222 0 34s15.222 34 34 34Z"/><path fill="#FF7D00" d="M36.456 43.162c1.043 0 1.89.846 1.89 1.889v4.911a1.889 1.889 0 0 1-1.89 1.889h-4.91a1.889 1.889 0 0 1-1.89-1.889v-4.911c0-1.043.846-1.889 1.89-1.889h4.91Zm0-27.742c1.043 0 1.89.846 1.89 1.889V37.18a1.889 1.889 0 0 1-1.89 1.889h-4.91a1.889 1.889 0 0 1-1.89-1.89V17.31c0-1.043.846-1.89 1.89-1.89h4.91Z"/></svg>