<svg xmlns="http://www.w3.org/2000/svg" width="8" height="8" fill="none"><path fill="#fff" d="M8 0H0v8h8z"/><path fill="#e63f3f" fill-rule="evenodd" d="M4.418 1.1c.11 0 .2.09.2.2v2.045l1.836-.597a.2.2 0 0 1 .252.129l.247.76a.2.2 0 0 1-.128.253l-1.85.6 1.224 1.686a.2.2 0 0 1-.044.28l-.647.47a.2.2 0 0 1-.28-.044L3.963 5.138 2.69 6.89a.2.2 0 0 1-.28.044l-.647-.47a.2.2 0 0 1-.044-.28l1.255-1.73L1.17 3.87a.2.2 0 0 1-.129-.252l.247-.761a.2.2 0 0 1 .252-.129l1.878.61.001-2.038c0-.11.09-.2.2-.2z" clip-rule="evenodd"/></svg>