<svg xmlns="http://www.w3.org/2000/svg" width="98" height="34" fill="none"><path fill="#fff" d="M35.535 19.434a7.943 7.943 0 0 0-.785-.472c.629-.796 1.12-1.75 1.477-2.861l.882.156c-.126.376-.264.722-.41 1.038h1.572v-1.57h.881v1.57h2.735v.818h-2.735v1.541h2.483v.818h-2.483v1.697h3.145v.723h-7.45v-.723h3.426v-1.697h-2.705v-.818h2.705v-1.54h-1.95c-.189.42-.453.859-.788 1.32Zm10.625-.156a.938.938 0 0 0-.19-.063l-.375-.127c.208-.65.357-1.53.439-2.641l.599.063c-.022.335-.064.659-.127.975h.536v-1.73h.785v1.73h.629v.598a8.38 8.38 0 0 0 1.068-2.326l.786.19a6.534 6.534 0 0 1-.253.598 4.351 4.351 0 0 1-.157.377h3.112c-.022.692-.052 1.801-.093 3.334a36.115 36.115 0 0 0-.064 1.477c.022.86-.398 1.299-1.257 1.32h-.473c-.252.023-.44.031-.566.031 0-.041-.01-.115-.03-.22-.063-.294-.115-.483-.156-.565.357.021.68.03.975.03.48.022.722-.23.722-.755.082-1.404.137-2.694.156-3.867h-.502c-.104 2.62-.964 4.432-2.579 5.44a4.376 4.376 0 0 0-.629-.629c1.593-.986 2.472-2.59 2.642-4.81h-.566c-.189 1.57-.818 2.828-1.886 3.772a4.113 4.113 0 0 0-.599-.598c1.027-.797 1.667-1.854 1.917-3.175h-.502c-.231.483-.492.912-.786 1.288-.23-.23-.42-.41-.566-.536l.157-.22h-.503v1.448l.66-.157c0 .377.01.651.03.819-.253.063-.484.126-.692.19v2.704h-.786v-2.515l-1.288.409-.093-.912c.44-.104.9-.22 1.384-.346v-1.634h-.629a6.041 6.041 0 0 1-.126.473 2.799 2.799 0 0 1-.124.56Zm10.845 2.955v-1.697h.818v1.038h1.195v-1.352h.818v1.352h1.195v-1.038h.818v1.697h-4.844Zm3.334-3.52a6.69 6.69 0 0 1-.44-.254c-.42-.23-.722-.409-.912-.535l.536-.535c.607.293 1.068.535 1.384.722l-.093.126h.785c.44.022.659-.167.659-.566.02-.104.03-.282.03-.535h-3.93v2.17h5.534c0 .941-.03 1.749-.093 2.421 0 .964-.514 1.437-1.541 1.415-.461.022-.86.03-1.195.03a25.538 25.538 0 0 0-.189-.819c.335.022.722.03 1.164.03.63.042.934-.208.912-.755.041-.587.063-1.13.063-1.633H57.51v-3.546h1.697c.104-.272.19-.535.253-.785l.942.093-.283.692h3.05c-.021.547-.051.975-.093 1.288 0 .819-.409 1.217-1.224 1.195h-1.005a.759.759 0 0 0-.064-.253 3.345 3.345 0 0 0-.063-.376l-.381.41Zm7.354 2.388v-.755h3.803l.063-.253a11 11 0 0 0 .253-2.389h.881c-.04 1.069-.126 1.876-.252 2.422l-.03.22h2.704v.755h-2.924l-.094.22c.692.272 1.656.65 2.892 1.131l-.41.755c-1.004-.483-1.98-.9-2.924-1.257-.565.588-1.73 1.027-3.49 1.32a17.07 17.07 0 0 0-.44-.818c2.033-.208 3.197-.659 3.49-1.35h-3.522Zm.156-2.798v-1.697h3.238a4.91 4.91 0 0 0-.127-.313 2.642 2.642 0 0 0-.22-.473l.976-.126c.04.085.093.2.156.346.083.253.157.44.22.566h2.861v1.697h-.848v-.942h-5.44v.942h-.816Zm2.36 2.013a23.02 23.02 0 0 0-1.698-.882l.41-.629c.125.064.312.157.565.283.502.253.881.44 1.131.566l-.409.662Zm.721-1.195a22.222 22.222 0 0 0-1.634-.881l.346-.599c.566.294 1.12.566 1.667.819l-.379.661Zm7.637 2.546-.03-.785a3.37 3.37 0 0 1 .41-.064 97.349 97.349 0 0 0 1.383-.156 3.958 3.958 0 0 0 0 .722c-.61.085-1.197.179-1.763.283Zm.63 1.477v-.063a6.029 6.029 0 0 0-.127-.722c.313.022.618.03.912.03.398.022.598-.137.598-.472.041-.607.063-1.236.063-1.887H78.79l.19-2.861h.721l-.156 2.106h.722l.19-2.452h-1.794V16.1h2.579l-.253 3.174h.44c-.022.272-.041.774-.063 1.51a22.541 22.541 0 0 0-.064 1.258c0 .733-.409 1.101-1.224 1.101h-.882Zm6.697-4.275a8.339 8.339 0 0 1-.629-.44v.692h-3.081v-.598l-.03.03c-.127.104-.305.23-.536.376a3.446 3.446 0 0 0-.376-.722c1.049-.651 1.793-1.478 2.233-2.483l.818.094-.157.313c.566.837 1.258 1.488 2.077 1.95-.13.255-.237.516-.32.788Zm-4.37 4.056v-.66h2.706c.376-1.194.629-2.084.755-2.671l.722.19a90.957 90.957 0 0 1-.785 2.482h1.068v.659h-4.465Zm.753-1.005a18.84 18.84 0 0 0-.565-2.077l.659-.156c.126.357.304.942.535 1.76.02.127.041.22.063.283l-.692.19Zm1.478-5.125c-.313.566-.797 1.112-1.447 1.634h2.924a6.463 6.463 0 0 1-1.477-1.634Zm-.157 4.779c-.041-.377-.145-.89-.313-1.541-.041-.168-.074-.294-.093-.376l.659-.127c.167.63.313 1.27.44 1.917l-.693.127Zm12.418-.975a2.153 2.153 0 0 1-.283-.253 1.765 1.765 0 0 0-.252-.22l-1.73.03v.786h2.704v.66h-2.704v.754h3.333v.66h-7.483v-.66h3.301v-.755H90.26v-.659h2.642v-.755c-.483 0-.942.01-1.384.03-.313 0-.599.022-.849.063l-.346-.659c.231-.063.44-.156.63-.283.356-.23.702-.483 1.037-.755h-1.414v-.502h-.785v-1.51h3.237a31.697 31.697 0 0 1-.156-.41c-.085-.168-.146-.294-.19-.376l.942-.127c.127.272.253.577.377.912h2.891v1.51h-.785v.503h-1.384c.755.588 1.373 1.068 1.853 1.447l-.56.569Zm-5.41-3.364v.692h5.47v-.692h-5.47Zm1.165 2.359c.439-.022 1.109-.042 2.013-.064.439-.021.774-.03 1.005-.03l-.692-.535.439-.376h-1.351a32.78 32.78 0 0 1-1.414 1.005ZM44.68 25.476h1.398l-.264 1.2h-1.398l.264-1.2Zm45.674 3.056c0 .148-.014.305-.042.47-.027.165-.123.601-.29 1.31-.138.585-.207.994-.207 1.227 0 .209.039.442.118.698h-1.359a2.33 2.33 0 0 1-.102-.555c-.205.214-.439.382-.705.497a2.013 2.013 0 0 1-.805.173c-.428 0-.782-.132-1.063-.398-.28-.267-.42-.607-.42-1.027 0-.467.154-.84.462-1.12.307-.28.854-.448 1.644-.509.665-.052 1.113-.115 1.335-.19.058-.183.088-.331.088-.441 0-.14-.06-.261-.181-.355-.121-.096-.3-.142-.536-.142-.25 0-.447.05-.593.145a.712.712 0 0 0-.294.412l-1.365-.11c.157-.436.429-.777.816-1.024.387-.247.903-.368 1.543-.368.665 0 1.16.126 1.478.382.318.255.478.56.478.925Zm-1.618 1.423a3.176 3.176 0 0 1-.335.06c-.7.08-1.159.198-1.373.352a.522.522 0 0 0-.228.447c0 .154.058.283.176.39.118.107.272.16.464.16.211 0 .41-.05.596-.146.187-.096.327-.223.42-.374.093-.15.176-.39.247-.714l.033-.175Zm8.348-.703c0 .445-.077.878-.23 1.299-.154.42-.36.76-.618 1.024s-.53.458-.813.585a2.185 2.185 0 0 1-.895.192c-.742 0-1.285-.307-1.632-.923l-.18.808h-1.272l1.491-6.761h1.403l-.502 2.26c.255-.184.497-.316.72-.396.222-.08.463-.118.727-.118.546 0 .983.173 1.31.52.327.345.491.85.491 1.51Zm-1.353.033c0-.35-.097-.621-.286-.819a.92.92 0 0 0-.69-.296c-.35 0-.653.153-.906.461-.348.42-.521.959-.521 1.61 0 .329.099.595.293.801.198.206.429.31.695.31.234 0 .456-.08.67-.238.212-.16.39-.415.53-.767.14-.351.215-.705.215-1.062Zm-55.65-.569c.367.096.653.267.859.511.206.244.31.522.31.827 0 .406-.12.79-.365 1.156-.244.365-.58.626-1.008.785-.428.16-1.016.239-1.76.239H34.75l1.497-6.761h2.441c.53 0 .9.017 1.112.047.352.046.648.137.893.277a1.4 1.4 0 0 1 .554.555c.127.23.19.486.19.766 0 .376-.11.7-.332.975-.22.274-.563.483-1.025.623Zm-.336 1.44a.688.688 0 0 0-.263-.556c-.176-.145-.467-.22-.876-.22H36.85l-.39 1.767h1.417c.596 0 .994-.036 1.197-.108a1 1 0 0 0 .486-.357.867.867 0 0 0 .184-.527Zm.234-2.879a.598.598 0 0 0-.157-.425.798.798 0 0 0-.442-.223c-.107-.02-.365-.027-.774-.027h-1.14l-.354 1.6h1.12c.503 0 .865-.032 1.088-.1.22-.07.387-.18.497-.333a.836.836 0 0 0 .162-.492Zm33.865-1.801h1.398l-1.492 6.76h-1.326l.118-.53c-.252.231-.502.396-.747.498a2.151 2.151 0 0 1-.832.15c-.535 0-.97-.172-1.304-.518-.333-.346-.5-.857-.5-1.532 0-.786.233-1.494.7-2.126.467-.634 1.088-.95 1.857-.95.694 0 1.216.26 1.565.785l.563-2.537Zm-.923 3.91c0-.354-.101-.64-.302-.857-.2-.22-.434-.326-.697-.326-.41 0-.745.214-1.008.645a2.627 2.627 0 0 0-.396 1.398c0 .351.094.623.28.82a.91.91 0 0 0 .69.295c.252 0 .489-.083.708-.247.22-.165.396-.415.528-.756.131-.337.197-.661.197-.972Zm-6.418-2.164c-.318 0-.62.058-.908.173-.289.116-.596.308-.929.58l.138-.637h-1.327l-1.082 4.899h1.398l.442-2.01c.13-.588.247-.975.352-1.168.142-.266.34-.483.59-.645.25-.162.478-.244.681-.244.19 0 .335.05.442.145.105.096.16.23.16.398 0 .08-.047.327-.138.742l-.615 2.782h1.398l.61-2.771c.107-.48.162-.805.162-.978 0-.381-.124-.686-.368-.917-.245-.233-.58-.349-1.005-.349Zm-5.255 1.31c0 .148-.014.305-.042.47-.027.165-.123.601-.29 1.31-.138.585-.207.994-.207 1.227 0 .209.039.442.118.698h-1.359a2.32 2.32 0 0 1-.102-.555c-.206.214-.439.382-.705.497a2.013 2.013 0 0 1-.805.173c-.428 0-.783-.132-1.063-.398-.28-.267-.42-.607-.42-1.027 0-.467.154-.84.461-1.12.308-.28.854-.448 1.645-.509.665-.052 1.113-.115 1.335-.19.058-.183.088-.331.088-.441 0-.14-.06-.261-.181-.355-.121-.096-.3-.142-.536-.142-.25 0-.448.05-.593.145a.712.712 0 0 0-.294.412l-1.365-.11a1.97 1.97 0 0 1 .816-1.024c.387-.247.903-.368 1.543-.368.665 0 1.16.126 1.478.382.318.255.477.56.477.925Zm-1.618 1.423a3.176 3.176 0 0 1-.335.06c-.7.08-1.159.198-1.373.352a.521.521 0 0 0-.228.447c0 .154.058.283.176.39.118.107.272.16.464.16.211 0 .409-.05.596-.146.187-.096.327-.223.42-.374.093-.15.176-.39.247-.714l.033-.175Zm-8.233-2.134c.428.398.643.934.643 1.606 0 .794-.27 1.48-.805 2.057-.535.58-1.255.868-2.153.868a2.92 2.92 0 0 1-1.296-.277 1.847 1.847 0 0 1-.843-.786 2.24 2.24 0 0 1-.277-1.087c0-.906.269-1.631.81-2.17.54-.54 1.252-.81 2.13-.81.767 0 1.363.2 1.791.599Zm-.747 1.436c0-.313-.096-.566-.29-.755-.196-.19-.443-.283-.748-.283a1.29 1.29 0 0 0-.805.266c-.233.176-.414.434-.546.772a2.62 2.62 0 0 0-.195.928c0 .352.102.63.302.835.2.206.456.31.76.31.385 0 .707-.156.965-.466.373-.442.557-.978.557-1.607Zm31.199-3.781h-1.467l-1.496 6.76h5.108l.25-1.13h-3.636l1.24-5.63Zm-28.804 6.76h1.398l1.49-6.76h-1.392l-1.496 6.76Zm-9.856 0h1.398l1.082-4.898H44.27l-1.082 4.899ZM15.994 0s-4.729.176-7.557 1.142C2.994 3.002-2.811 9.955 1.503 18.146c2.186 4.251 8.268 5.718 11.553 4.043 3.284-1.675 3.748-5.937 1.988-7.223 1.134-.54 1.39-1.082 1.134-2.166-.593 1.082-.865 1.422-1.744 1.691-1.082-.068-2.438-.134-3.452.813 2.033-.134 4.029.629 2.574 1.76-1.612 1.253-5.35-1.117-2.137-4.19 1.766-1.686 6.492-.596 7.447 1.288 3.653 4.965-2.564 14.623-4.794 16.391-1.351 1.071-2.713 3.032-6.747 3.084 1.266.34 3.921 1.01 7.694-1.255 1.379-.83 2.78-1.985 3.749-4.08-.475 1.829-1.302 3.528-2.777 5.146 3.724-2.505 5.688-6.025 6.976-9.142 0 .475-.679 2.776-1.423 3.927 1.963-1.423 7.148-14.837-3.048-18.822-3.345-1.307-5.091-1.225-7.796.253-2.324 1.268-2.942 3.874-2.565 5.777.645 3.268 5.849 4.798 6.917 1.27.176.952-.4 3.833-4.476 3.737-4.174-.1-7.447-6.094-3.927-11.85 3.52-5.756 10.792-5.35 14.145-3.498 2.01.983 2.466 1.971 4.416 3.646 1.895 1.629 4.394 2.434 5.731 3.782.717.722.948 1.614.948 3.24.826-3.979-2.4-5.25-4.919-7.318-3.097-3.177-3.462-3.982-5.813-5.199-1.964-1.021-2.93-1.153-4.487-1.288 1.829-.406 5.44.044 8.172 2.76C22.398 1.466 15.72-.895 9.895 1.612 11.729.818 12.918.422 15.995 0Z"/></svg>