<svg xmlns="http://www.w3.org/2000/svg" width="729" height="259" baseProfile="tiny-ps" version="1.2"><defs><radialGradient id="grd1" cx="136.025" cy="130.203" r="104.036" gradientUnits="userSpaceOnUse"><stop offset="0" stop-color="#f7bc53"/><stop offset="1" stop-color="#2161a8"/></radialGradient></defs><style></style><g id="图层 1"><path id="&lt;Compound Path&gt;" d="M261.27 146.78c-1.52-1.06-3.43-2.21-5.72-3.43 4.58-5.8 8.16-12.74 10.76-20.84l6.41 1.15c-.91 2.75-1.91 5.26-2.97 7.55h11.44v-11.45h6.42v11.45h19.92v5.96h-19.92v11.22h18.08v5.95h-18.08v12.36h22.89v5.27h-54.26v-5.27h24.95v-12.36H261.5v-5.95h19.69v-11.22H267c-1.38 3.05-3.29 6.26-5.73 9.61Zm77.38-1.14c-.31-.15-.76-.31-1.37-.46-1.38-.46-2.29-.76-2.75-.91 1.52-4.73 2.59-11.15 3.21-19.24l4.35.46c-.16 2.44-.46 4.81-.92 7.1h3.89v-12.6h5.73v12.6h4.58v4.35c3.35-5.04 5.95-10.69 7.78-16.95l5.73 1.38c-.31.91-.92 2.37-1.84 4.35-.45 1.22-.84 2.14-1.14 2.75h22.67c-.16 5.03-.39 13.13-.69 24.27-.31 5.49-.46 9.08-.46 10.76.15 6.26-2.9 9.46-9.16 9.62h-3.43c-1.83.15-3.21.22-4.12.22 0-.3-.08-.84-.23-1.6-.46-2.14-.84-3.51-1.15-4.12 2.6.15 4.96.23 7.1.23 3.51.15 5.27-1.68 5.27-5.5.61-10.22.99-19.61 1.14-28.16h-3.66c-.77 19.08-7.02 32.29-18.78 39.61-1.22-1.53-2.74-3.05-4.58-4.58 11.6-7.17 18.01-18.85 19.24-35.03h-4.12c-1.38 11.45-5.96 20.61-13.74 27.48-1.38-1.68-2.83-3.13-4.35-4.35 7.47-5.8 12.13-13.51 13.97-23.13h-3.67c-1.68 3.51-3.59 6.64-5.72 9.39-1.68-1.68-3.06-2.98-4.12-3.89l1.14-1.61h-3.66v10.54l4.81-1.15c0 2.75.07 4.73.22 5.95-1.83.46-3.51.92-5.03 1.38v19.69h-5.73v-18.32c-2.9.92-6.03 1.91-9.39 2.98l-.68-6.64c3.2-.76 6.56-1.6 10.07-2.52v-11.91h-4.58c-.15.77-.45 1.91-.91 3.44-.31 1.98-.61 3.36-.92 4.12Zm78.98 21.52V154.8h5.95v7.55h8.7v-9.84h5.96v9.84h8.7v-7.55h5.95v12.36h-35.26Zm24.27-25.64c-.61-.31-1.68-.92-3.2-1.83-3.06-1.68-5.27-2.98-6.64-3.9l3.89-3.89c4.42 2.14 7.78 3.89 10.07 5.27l-.68.91h5.72c3.21.16 4.81-1.22 4.81-4.12.15-.76.23-2.06.23-3.89h-28.62v15.8h40.3c0 6.87-.23 12.75-.69 17.63 0 7.02-3.74 10.45-11.22 10.3-3.36.15-6.26.23-8.7.23-.46-2.14-.92-4.12-1.38-5.95 2.44.15 5.27.23 8.48.23 4.58.3 6.79-1.53 6.64-5.5.3-4.27.45-8.24.45-11.9h-40.07v-25.88h12.37a50.09 50.09 0 0 0 1.83-5.72l6.87.68-2.06 5.04h22.21c-.16 3.97-.38 7.1-.69 9.39 0 5.95-2.97 8.85-8.93 8.7h-7.32c0-.46-.16-1.07-.46-1.83-.16-1.22-.31-2.14-.46-2.75l-2.75 2.98Zm53.57 17.4v-5.5h27.7l.46-1.83c1.22-5.49 1.83-11.29 1.83-17.4h6.41c-.31 7.79-.91 13.66-1.83 17.63l-.23 1.6h19.69v5.5h-21.29l-.69 1.6c5.04 1.99 12.06 4.74 21.07 8.25l-2.98 5.49c-7.33-3.51-14.42-6.56-21.29-9.16-4.13 4.27-12.6 7.48-25.42 9.62-.92-1.83-1.99-3.82-3.21-5.95 14.81-1.53 23.28-4.81 25.42-9.85h-25.64Zm1.14-20.38v-12.36h23.58c-.15-.46-.45-1.22-.91-2.29-.16-.61-.69-1.76-1.6-3.44l7.09-.91c.31.61.69 1.45 1.15 2.51.61 1.84 1.14 3.21 1.6 4.13h20.84v12.36h-6.18v-6.87h-39.62v6.87h-5.95Zm17.17 14.65c-4.27-2.44-8.39-4.57-12.36-6.41l2.98-4.58c.91.46 2.29 1.15 4.12 2.07 3.66 1.83 6.41 3.2 8.24 4.12l-2.98 4.8Zm5.27-8.7c-4.12-2.44-8.09-4.58-11.91-6.41l2.52-4.35c4.12 2.14 8.17 4.12 12.14 5.96l-2.75 4.8Zm55.62 18.55-.23-5.72c.61-.15 1.61-.31 2.98-.46 4.27-.46 7.63-.84 10.08-1.15-.16 1.84-.16 3.59 0 5.27-4.43.61-8.7 1.3-12.83 2.06Zm4.58 10.76v-.46c-.15-1.52-.45-3.28-.91-5.26 2.29.15 4.5.23 6.64.23 2.9.15 4.35-.99 4.35-3.44.3-4.42.46-9 .46-13.74h-13.51l1.37-20.83h5.27l-1.15 15.34h5.27l1.37-17.86h-13.05v-5.27h18.78l-1.84 23.13h3.21c-.15 1.98-.31 5.65-.46 10.99-.31 4.43-.46 7.48-.46 9.16 0 5.34-2.97 8.01-8.93 8.01h-6.41Zm48.77-31.14c-1.68-1.06-3.2-2.13-4.58-3.2v5.03h-22.43v-4.35l-.23.23c-.92.77-2.22 1.68-3.9 2.75-.61-1.68-1.52-3.43-2.74-5.27 7.63-4.73 13.05-10.76 16.25-18.09l5.96.69-1.15 2.29c4.12 6.11 9.16 10.84 15.11 14.2a37.92 37.92 0 0 0-2.29 5.72ZM596.2 172.2v-4.81h19.69c2.75-8.7 4.58-15.19 5.49-19.46l5.27 1.37a627.39 627.39 0 0 1-5.72 18.09h7.78v4.81H596.2Zm5.49-7.33c-1.07-5.03-2.44-10.07-4.12-15.11l4.81-1.14c.92 2.59 2.21 6.86 3.89 12.82.15.91.31 1.6.46 2.06l-5.04 1.37Zm10.76-37.32c-2.29 4.12-5.8 8.09-10.53 11.91h21.3c-4.43-3.51-8.02-7.48-10.77-11.91Zm-1.14 34.8c-.31-2.74-1.07-6.48-2.29-11.22-.31-1.22-.54-2.13-.69-2.74l4.81-.92c1.22 4.58 2.29 9.24 3.21 13.97l-5.04.91Zm90.43-7.09c-.46-.31-1.15-.92-2.06-1.84-.77-.76-1.38-1.29-1.83-1.6l-12.6.23v5.72h19.69v4.81h-19.69v5.5h24.27v4.81h-54.49v-4.81h24.04v-5.5h-19.23v-4.81h19.23v-5.49c-3.51 0-6.87.08-10.07.23-2.29 0-4.36.15-6.19.46l-2.52-4.81c1.68-.46 3.21-1.15 4.58-2.06 2.6-1.68 5.12-3.51 7.56-5.5h-10.3v-3.66h-5.73v-10.99h23.59c-.31-.77-.69-1.76-1.15-2.98-.61-1.22-1.07-2.14-1.37-2.75l6.87-.91c.91 1.98 1.83 4.2 2.74 6.64h21.07v10.99h-5.72v3.66h-10.08c5.5 4.28 10 7.79 13.51 10.53l-4.12 4.13Zm-39.38-24.5v5.03h39.84v-5.03h-39.84Zm8.47 17.17c3.2-.15 8.09-.31 14.65-.46 3.21-.15 5.65-.23 7.33-.23l-5.04-3.89 3.21-2.75h-9.85c-3.66 2.75-7.1 5.19-10.3 7.33Z" style="fill:#2358af"/><path id="&lt;Group&gt;" d="M327.87 190.77h10.18l-1.92 8.74h-10.18l1.92-8.74Zm332.63 22.27c0 1.08-.1 2.22-.3 3.43-.2 1.21-.91 4.39-2.11 9.54-1 4.25-1.49 7.23-1.49 8.94 0 1.52.28 3.21.85 5.07h-9.9c-.41-1.3-.65-2.64-.75-4.03-1.49 1.56-3.2 2.77-5.14 3.61-1.94.84-3.9 1.26-5.86 1.26-3.12 0-5.7-.97-7.74-2.91-2.03-1.93-3.05-4.43-3.05-7.47 0-3.41 1.12-6.13 3.36-8.17 2.23-2.03 6.22-3.27 11.97-3.69 4.85-.38 8.09-.84 9.73-1.38.42-1.34.64-2.42.64-3.22 0-1.03-.44-1.9-1.32-2.59-.87-.69-2.17-1.04-3.9-1.04-1.82 0-3.26.35-4.31 1.06-1.06.7-1.77 1.71-2.15 3l-9.94-.8c1.14-3.18 3.12-5.67 5.95-7.46 2.82-1.79 6.57-2.69 11.23-2.69 4.85 0 8.43.93 10.75 2.77 2.32 1.85 3.48 4.11 3.48 6.77Zm-11.78 10.35c-.62.16-1.43.3-2.45.44-5.11.58-8.45 1.43-10.01 2.55-1.11.81-1.67 1.89-1.67 3.26 0 1.12.43 2.06 1.28 2.84.85.77 1.98 1.16 3.37 1.16 1.54 0 2.99-.36 4.35-1.06 1.36-.71 2.38-1.62 3.05-2.72.68-1.11 1.27-2.84 1.79-5.19l.29-1.28Zm60.8-5.11c0 3.25-.56 6.4-1.68 9.46-1.13 3.06-2.63 5.54-4.51 7.46-1.88 1.91-3.86 3.34-5.93 4.26-2.07.93-4.24 1.4-6.51 1.4-5.39 0-9.36-2.24-11.89-6.72l-1.31 5.88h-9.26l10.86-49.25h10.22l-3.66 16.46c1.87-1.34 3.62-2.3 5.24-2.87 1.62-.57 3.39-.86 5.3-.86 3.98 0 7.16 1.26 9.55 3.78 2.39 2.52 3.58 6.19 3.58 11Zm-9.86.24c0-2.53-.69-4.52-2.08-5.96-1.38-1.45-3.06-2.17-5.02-2.17-2.56 0-4.76 1.12-6.6 3.36-2.53 3.07-3.8 6.97-3.8 11.72 0 2.4.72 4.35 2.15 5.85s3.12 2.25 5.06 2.25c1.7 0 3.33-.58 4.88-1.75 1.55-1.16 2.84-3.02 3.86-5.57 1.03-2.56 1.55-5.13 1.55-7.73Zm-405.29-4.13c2.68.69 4.76 1.93 6.27 3.71 1.5 1.78 2.25 3.79 2.25 6.03 0 2.95-.89 5.76-2.66 8.41-1.78 2.66-4.22 4.57-7.35 5.73-3.12 1.17-7.39 1.75-12.81 1.75h-24.52l10.89-49.25h17.78c3.86 0 6.56.11 8.09.34 2.56.33 4.72 1 6.5 2.01 1.77 1.01 3.12 2.35 4.05 4.03.92 1.68 1.38 3.54 1.38 5.58 0 2.73-.81 5.1-2.41 7.1-1.61 2.01-4.1 3.53-7.46 4.56Zm-2.45 10.48c0-1.64-.63-2.99-1.91-4.05-1.28-1.06-3.41-1.6-6.39-1.6h-12.78l-2.83 12.87h10.32c4.33 0 7.24-.26 8.72-.79 1.47-.52 2.66-1.39 3.54-2.6.89-1.21 1.33-2.49 1.33-3.83Zm1.71-20.96c0-1.26-.38-2.29-1.14-3.09-.76-.81-1.83-1.35-3.23-1.62-.78-.13-2.66-.2-5.64-.2h-8.3l-2.59 11.66h8.16c3.66 0 6.3-.25 7.91-.74 1.61-.49 2.82-1.3 3.62-2.42.81-1.12 1.21-2.32 1.21-3.59Zm246.63-13.14h10.19l-10.86 49.25h-9.66l.85-3.87c-1.84 1.68-3.66 2.89-5.44 3.62-1.79.72-3.81 1.09-6.05 1.09-3.91 0-7.07-1.26-9.5-3.78-2.42-2.52-3.63-6.24-3.63-11.17 0-5.71 1.7-10.87 5.11-15.49 3.4-4.61 7.91-6.92 13.52-6.92 5.06 0 8.86 1.91 11.39 5.71l4.08-18.44Zm-6.71 28.49c0-2.58-.73-4.66-2.2-6.25-1.46-1.59-3.16-2.39-5.07-2.39-2.98 0-5.43 1.57-7.35 4.71-1.91 3.13-2.87 6.53-2.87 10.18 0 2.55.68 4.54 2.04 5.98 1.36 1.43 3.03 2.15 5.02 2.15 1.85 0 3.57-.6 5.16-1.8 1.6-1.2 2.88-3.03 3.84-5.49.95-2.47 1.43-4.83 1.43-7.09Zm-39.42-13.24c1.79 1.68 2.68 3.91 2.68 6.69 0 1.25-.39 3.63-1.17 7.12l-4.44 20.19h-10.18l4.47-20.26c.66-3.02.99-4.82.99-5.41 0-1.23-.38-2.2-1.15-2.9-.77-.71-1.84-1.06-3.21-1.06-1.49 0-3.15.59-4.97 1.78a12.714 12.714 0 0 0-4.3 4.7c-.75 1.39-1.6 4.22-2.55 8.5l-3.23 14.65h-10.18l7.87-35.68h9.66l-1 4.64c2.42-1.97 4.67-3.38 6.76-4.22 2.1-.84 4.3-1.26 6.62-1.26 3.1 0 5.54.84 7.33 2.52Zm-45.6 7.02c0 1.08-.1 2.22-.3 3.43-.2 1.21-.91 4.39-2.11 9.54-.99 4.25-1.49 7.23-1.49 8.94 0 1.52.28 3.21.85 5.07h-9.9c-.4-1.3-.65-2.64-.75-4.03-1.49 1.56-3.2 2.77-5.14 3.61-1.94.84-3.89 1.26-5.86 1.26-3.12 0-5.7-.97-7.73-2.91-2.04-1.93-3.06-4.43-3.06-7.47 0-3.41 1.12-6.13 3.36-8.17 2.23-2.03 6.23-3.27 11.97-3.69 4.85-.38 8.1-.84 9.73-1.38.42-1.34.64-2.42.64-3.22 0-1.03-.44-1.9-1.32-2.59-.87-.69-2.17-1.04-3.9-1.04-1.82 0-3.26.35-4.31 1.06-1.05.7-1.77 1.71-2.15 3l-9.94-.8c1.14-3.18 3.12-5.67 5.95-7.46s6.57-2.69 11.23-2.69c4.85 0 8.43.93 10.75 2.77 2.32 1.85 3.48 4.11 3.48 6.77Zm-11.78 10.35c-.62.16-1.43.3-2.45.44-5.11.58-8.44 1.43-10.01 2.55-1.11.81-1.66 1.89-1.66 3.26 0 1.12.42 2.06 1.27 2.84.85.77 1.98 1.16 3.37 1.16 1.54 0 2.99-.36 4.35-1.06 1.36-.71 2.38-1.62 3.05-2.72.68-1.11 1.28-2.84 1.8-5.19l.28-1.28Zm-59.97-15.54c3.12 2.9 4.69 6.81 4.69 11.71 0 5.78-1.96 10.77-5.86 14.98-3.9 4.21-9.13 6.32-15.69 6.32-3.54 0-6.69-.67-9.43-2.02-2.75-1.34-4.8-3.24-6.14-5.71a16.22 16.22 0 0 1-2.03-7.93c0-6.6 1.97-11.87 5.91-15.8 3.94-3.93 9.12-5.9 15.53-5.9 5.56 0 9.9 1.45 13.02 4.35Zm-5.43 10.47c0-2.29-.7-4.12-2.11-5.5-1.41-1.37-3.22-2.06-5.45-2.06-2.2 0-4.15.64-5.85 1.93-1.71 1.29-3.03 3.16-3.98 5.61-.94 2.45-1.42 4.71-1.42 6.77 0 2.55.74 4.58 2.2 6.08 1.47 1.5 3.32 2.25 5.54 2.25 2.79 0 5.13-1.13 7.03-3.39 2.69-3.21 4.04-7.1 4.04-11.69Zm218.16 13.47h26.47l-1.81 8.23h-37.19l10.9-49.25h10.68l-9.05 41.02Zm-189.82-41.02h10.15l-10.86 49.25h-10.19l10.9-49.25Zm-74.81 13.57h10.19l-7.88 35.68h-10.18l7.87-35.68Z" style="fill:#9c6f39"/><path id="&lt;Path&gt;" d="M118.94 5.24c-22.96.85-41.31 3.62-55.04 8.31-39.63 13.54-81.91 64.18-50.49 123.84 15.93 30.96 60.22 41.65 84.14 29.43 23.93-12.21 27.31-43.23 14.49-52.6 8.26-3.95 10.12-7.89 8.26-15.78-4.32 7.89-6.29 10.35-12.7 12.33-7.89-.5-17.75-.99-25.15 5.91 14.79-.98 29.33 4.59 18.74 12.82-11.74 9.13-38.96-8.14-15.57-30.51 12.86-12.29 47.29-4.34 54.24 9.39 26.6 36.16-18.68 106.5-34.91 119.37-9.84 7.8-19.75 22.09-49.14 22.46 9.21 2.49 28.56 7.37 56.04-9.13 10.05-6.03 20.23-14.46 27.31-29.72-3.45 13.32-9.48 25.71-20.22 37.48 27.12-18.25 41.42-43.89 50.79-66.57 0 3.45-4.93 20.22-10.35 28.6 14.3-10.36 52.05-108.05-22.19-137.09-24.37-9.52-37.09-8.92-56.79 1.84-16.92 9.25-21.42 28.22-18.68 42.08 4.69 23.79 42.59 34.95 50.37 9.24 1.28 6.95-2.92 27.92-32.6 27.22-30.41-.72-54.24-44.38-28.6-86.3 25.64-41.91 78.59-38.95 103.02-25.49 14.65 7.17 17.95 14.36 32.15 26.56 13.8 11.86 32 17.72 41.74 27.53 5.21 5.25 6.9 11.77 6.9 23.6 6.02-28.99-17.48-38.23-35.82-53.3-22.57-23.15-25.23-28.99-42.34-37.87-14.3-7.41-21.33-8.37-32.67-9.35 13.32-2.96 39.61.31 59.52 20.1-17.81-23.72-66.45-40.91-108.86-22.67 13.36-5.77 22.01-8.64 44.41-11.73Z" style="fill:url(#grd1)"/></g></svg>