<svg xmlns="http://www.w3.org/2000/svg" width="587" height="594"><defs><linearGradient id="a" x1="-2.191%" x2="70.893%" y1="3.841%" y2="67.953%"><stop offset="0%" stop-color="#5A9FD4"/><stop offset="100%" stop-color="#306998"/></linearGradient><linearGradient id="b" x1="64.646%" x2="38.891%" y1="71.723%" y2="34.36%"><stop offset="0%" stop-color="#FFD43B"/><stop offset="100%" stop-color="#FFE873"/></linearGradient></defs><g fill="none"><path fill="url(#a)" d="M289.28.892c-24.136.11-47.183 2.169-67.46 5.76-59.74 10.557-70.587 32.645-70.587 73.389v53.806h141.175v17.934H98.248c-41.028 0-76.959 24.663-88.195 71.578-12.963 53.775-13.537 87.33 0 143.48 10.036 41.797 34.004 71.578 75.031 71.578h48.542v-64.5c0-46.6 40.317-87.7 88.195-87.7h141.011c39.253 0 70.588-32.32 70.588-71.741V80.036c0-38.259-32.277-67.002-70.588-73.39C338.575 2.614 313.417.777 289.28.893Zm-76.347 43.27c14.585 0 26.49 12.106 26.49 26.985 0 14.828-11.91 26.822-26.49 26.822-14.633 0-26.49-11.989-26.49-26.822 0-14.88 11.857-26.985 26.49-26.985Z" transform="translate(.327 .796)"/><path fill="url(#b)" d="M451.027 151.776v62.69c0 48.604-41.207 89.51-88.195 89.51H221.821c-38.627 0-70.588 33.057-70.588 71.741v134.43c0 38.264 33.267 60.768 70.588 71.74 44.687 13.143 87.541 15.518 141.011 0 35.541-10.288 70.588-31.002 70.588-71.74v-53.801H292.408v-17.934h211.6c41.032 0 56.317-28.623 70.587-71.578 14.743-44.218 14.116-86.752 0-143.48-10.141-40.844-29.507-71.578-70.588-71.578h-52.98Zm-79.312 340.437c14.632 0 26.49 11.99 26.49 26.822 0 14.88-11.858 26.985-26.49 26.985-14.585 0-26.49-12.105-26.49-26.985 0-14.827 11.91-26.822 26.49-26.822Z" transform="translate(.327 .796)"/></g></svg>