<svg xmlns="http://www.w3.org/2000/svg" width="68" height="68" fill="none"><g fill-rule="evenodd" clip-rule="evenodd"><path fill="#e8ffea" d="M34 0c18.778 0 34 15.222 34 34S52.778 68 34 68 0 52.778 0 34 15.222 0 34 0z"/><path fill="#00b42a" d="m48.026 25.159-1.736-1.457a2.269 2.269 0 0 0-3.194.278L30.87 38.542l-5.52-4.751a2.267 2.267 0 0 0-3.163.201l-1.52 1.69-.03.032a2.267 2.267 0 0 0 .23 3.197l5.612 4.862 3.405 2.949.035.03c.963.8 2.392.668 3.192-.294l.715-.86L48.305 28.35a2.266 2.266 0 0 0-.279-3.192z"/></g></svg>