<svg width="10" height="11" viewBox="0 0 10 11" fill="none" xmlns="http://www.w3.org/2000/svg">
<mask id="path-1-inside-1" fill="white">
<path fill-rule="evenodd" clip-rule="evenodd" d="M5.875 0.375C5.875 0.236929 5.76307 0.125 5.625 0.125H4.375C4.23693 0.125 4.125 0.236929 4.125 0.375V4.25H0.25C0.111929 4.25 0 4.36193 0 4.5V5.75C0 5.88807 0.111929 6 0.25 6H4.125V9.875C4.125 10.0131 4.23693 10.125 4.375 10.125H5.625C5.76307 10.125 5.875 10.0131 5.875 9.875V6H9.75C9.88807 6 10 5.88807 10 5.75V4.5C10 4.36193 9.88807 4.25 9.75 4.25H5.875V0.375Z"/>
</mask>
<path fill-rule="evenodd" clip-rule="evenodd" d="M5.875 0.375C5.875 0.236929 5.76307 0.125 5.625 0.125H4.375C4.23693 0.125 4.125 0.236929 4.125 0.375V4.25H0.25C0.111929 4.25 0 4.36193 0 4.5V5.75C0 5.88807 0.111929 6 0.25 6H4.125V9.875C4.125 10.0131 4.23693 10.125 4.375 10.125H5.625C5.76307 10.125 5.875 10.0131 5.875 9.875V6H9.75C9.88807 6 10 5.88807 10 5.75V4.5C10 4.36193 9.88807 4.25 9.75 4.25H5.875V0.375Z" fill="#D8D8D8"/>
<path d="M4.125 4.25V5.25H5.125V4.25H4.125ZM4.125 6H5.125V5H4.125V6ZM5.875 6V5H4.875V6H5.875ZM5.875 4.25H4.875V5.25H5.875V4.25ZM5.625 1.125C5.21079 1.125 4.875 0.789214 4.875 0.375H6.875C6.875 -0.315356 6.31536 -0.875 5.625 -0.875V1.125ZM4.375 1.125H5.625V-0.875H4.375V1.125ZM5.125 0.375C5.125 0.789215 4.78921 1.125 4.375 1.125V-0.875C3.68465 -0.875 3.125 -0.315358 3.125 0.375H5.125ZM5.125 4.25V0.375H3.125V4.25H5.125ZM0.25 5.25H4.125V3.25H0.25V5.25ZM1 4.5C1 4.91421 0.664214 5.25 0.25 5.25V3.25C-0.440356 3.25 -1 3.80964 -1 4.5H1ZM1 5.75V4.5H-1V5.75H1ZM0.25 5C0.664215 5 1 5.33579 1 5.75H-1C-1 6.44035 -0.440358 7 0.25 7V5ZM4.125 5H0.25V7H4.125V5ZM5.125 9.875V6H3.125V9.875H5.125ZM4.375 9.125C4.78921 9.125 5.125 9.46079 5.125 9.875H3.125C3.125 10.5654 3.68464 11.125 4.375 11.125V9.125ZM5.625 9.125H4.375V11.125H5.625V9.125ZM4.875 9.875C4.875 9.46079 5.21079 9.125 5.625 9.125V11.125C6.31536 11.125 6.875 10.5654 6.875 9.875H4.875ZM4.875 6V9.875H6.875V6H4.875ZM9.75 5H5.875V7H9.75V5ZM9 5.75C9 5.33579 9.33579 5 9.75 5V7C10.4404 7 11 6.44036 11 5.75H9ZM9 4.5V5.75H11V4.5H9ZM9.75 5.25C9.33579 5.25 9 4.91421 9 4.5H11C11 3.80964 10.4404 3.25 9.75 3.25V5.25ZM5.875 5.25H9.75V3.25H5.875V5.25ZM4.875 0.375V4.25H6.875V0.375H4.875Z" fill="#F2F3F5" mask="url(#path-1-inside-1)"/>
</svg>
