<svg width="12" height="12" viewBox="0 0 12 12" fill="none" xmlns="http://www.w3.org/2000/svg">
<path fill-rule="evenodd" clip-rule="evenodd" d="M5.33342 0.5C5.05728 0.5 4.83342 0.723858 4.83342 1V4.66667H1.16675C0.890606 4.66667 0.666748 4.89052 0.666748 5.16667V6.5C0.666748 6.77614 0.890606 7 1.16675 7H4.83342V10.6667C4.83342 10.9428 5.05728 11.1667 5.33342 11.1667H6.66675C6.9429 11.1667 7.16675 10.9428 7.16675 10.6667V7H10.8334C11.1096 7 11.3334 6.77614 11.3334 6.5V5.16667C11.3334 4.89052 11.1096 4.66667 10.8334 4.66667H7.16675V1C7.16675 0.723858 6.9429 0.5 6.66675 0.5H5.33342Z" fill="#4E5969"/>
</svg>
