<svg width="24" height="24" viewBox="0 0 24 24" fill="none" xmlns="http://www.w3.org/2000/svg">
<circle cx="12" cy="12" r="12" fill="#00BAB2"/>
<mask id="mask0" mask-type="alpha" maskUnits="userSpaceOnUse" x="0" y="0" width="24" height="24">
<circle cx="12" cy="12" r="12" fill="white"/>
</mask>
<g mask="url(#mask0)">
<path fill-rule="evenodd" clip-rule="evenodd" d="M9.30837 16.7933C9.30837 16.7933 9.75862 18.4951 8.14159 19.5087C6.52456 20.5223 3.87695 22.2012 3.87695 22.2012L4.06307 23.6297L6.64169 25.2981L11.715 25.8691H15.7037L18.8665 24.2798L19.7864 23.187L20.1231 22.4899L19.7864 22.0562L15.8487 19.5087C15.8487 19.5087 14.1161 18.58 14.6506 16.7933C15.1851 15.0065 9.30837 16.7933 9.30837 16.7933Z" fill="white"/>
<mask id="mask1" mask-type="alpha" maskUnits="userSpaceOnUse" x="3" y="15" width="18" height="11">
<path fill-rule="evenodd" clip-rule="evenodd" d="M9.30837 16.7933C9.30837 16.7933 9.75862 18.4951 8.14159 19.5087C6.52456 20.5223 3.87695 22.2012 3.87695 22.2012L4.06307 23.6297L6.64169 25.2981L11.715 25.8691H15.7037L18.8665 24.2798L19.7864 23.187L20.1231 22.4899L19.7864 22.0562L15.8487 19.5087C15.8487 19.5087 14.1161 18.58 14.6506 16.7933C15.1851 15.0065 9.30837 16.7933 9.30837 16.7933Z" fill="white"/>
</mask>
<g mask="url(#mask1)">
<circle cx="14.5269" cy="13.4019" r="6.27692" fill="#DFE4F1"/>
</g>
</g>
<ellipse cx="12" cy="12.023" rx="4.98462" ry="6.09231" fill="white"/>
</svg>
