<svg width="12" height="12" viewBox="0 0 12 12" fill="none" xmlns="http://www.w3.org/2000/svg">
<path fill-rule="evenodd" clip-rule="evenodd" d="M2 3C2.55228 3 3 2.55228 3 2C3 1.44771 2.55228 1 2 1C1.44771 1 1 1.44771 1 2C1 2.55228 1.44771 3 2 3Z" stroke-linecap="round" stroke-linejoin="round"/>
<path fill-rule="evenodd" clip-rule="evenodd" d="M2.5 10.5C3.32842 10.5 4 9.82842 4 9C4 8.17158 3.32842 7.5 2.5 7.5C1.67157 7.5 1 8.17158 1 9C1 9.82842 1.67157 10.5 2.5 10.5Z"  stroke-linecap="round" stroke-linejoin="round"/>
<path fill-rule="evenodd" clip-rule="evenodd" d="M9.5 11C10.3284 11 11 10.3284 11 9.5C11 8.67158 10.3284 8 9.5 8C8.67158 8 8 8.67158 8 9.5C8 10.3284 8.67158 11 9.5 11Z"  stroke-linecap="round" stroke-linejoin="round"/>
<path fill-rule="evenodd" clip-rule="evenodd" d="M5.5 7C6.60458 7 7.5 6.10458 7.5 5C7.5 3.89542 6.60458 3 5.5 3C4.39542 3 3.5 3.89542 3.5 5C3.5 6.10458 4.39542 7 5.5 7Z" stroke-linecap="round" stroke-linejoin="round"/>
<path fill-rule="evenodd" clip-rule="evenodd" d="M8.5 3C9.05228 3 9.5 2.55228 9.5 2C9.5 1.44771 9.05228 1 8.5 1C7.94772 1 7.5 1.44771 7.5 2C7.5 2.55228 7.94772 3 8.5 3Z" stroke-linecap="round" stroke-linejoin="round"/>
<path d="M2.75 2.75L3.75 3.75" stroke-linecap="round" stroke-linejoin="round"/>
<path d="M7.5 3L7 3.5" stroke-linecap="round" stroke-linejoin="round"/>
<path d="M8.5 8.375L7 6.5" stroke-linecap="round" stroke-linejoin="round"/>
<path d="M3.5 7.75L4.5 6.75" stroke-linecap="round" stroke-linejoin="round"/>
</svg>
