<svg width="24" height="24" viewBox="0 0 24 24" fill="none" xmlns="http://www.w3.org/2000/svg">
<circle cx="12" cy="12" r="12" fill="white"/>
<path d="M7.1 6.75C7.1 6.66716 7.16716 6.6 7.25 6.6H16.75C16.8328 6.6 16.9 6.66716 16.9 6.75V14.25C16.9 14.3328 16.8328 14.4 16.75 14.4H7.25C7.16716 14.4 7.1 14.3328 7.1 14.25V6.75Z" stroke="#4E4F69" stroke-width="1.2"/>
<path d="M9.72301 8.88907C9.78428 8.79716 9.90845 8.77233 10.0004 8.8336L10.4995 9.16638C10.5915 9.22766 10.6163 9.35188 10.555 9.44379L9.92496 10.3881C9.88016 10.4553 9.88012 10.5428 9.92488 10.61L10.5552 11.5563C10.6164 11.6482 10.5915 11.7723 10.4997 11.8335L10.0004 12.1664C9.90845 12.2277 9.78428 12.2029 9.72301 12.1109L8.72301 10.6109C8.67822 10.5438 8.67822 10.4562 8.72301 10.3891L9.72301 8.88907Z" fill="#4E4F69"/>
<path d="M14.3429 8.88907C14.2816 8.79716 14.1575 8.77233 14.0656 8.8336L13.5664 9.16638C13.4745 9.22766 13.4496 9.35188 13.511 9.44379L14.141 10.3881C14.1858 10.4553 14.1858 10.5428 14.141 10.61L13.5107 11.5563C13.4495 11.6482 13.4744 11.7723 13.5663 11.8335L14.0656 12.1664C14.1575 12.2277 14.2816 12.2029 14.3429 12.1109L15.3429 10.6109C15.3877 10.5438 15.3877 10.4562 15.3429 10.3891L14.3429 8.88907Z" fill="#4E4F69"/>
<path d="M11.724 9.11525C11.7421 9.00629 11.8452 8.93269 11.9541 8.95085L12.546 9.04949C12.6549 9.06765 12.7285 9.17069 12.7104 9.27965L12.2761 11.8851C12.258 11.994 12.1549 12.0676 12.046 12.0495L11.4541 11.9508C11.3452 11.9327 11.2716 11.8296 11.2897 11.7207L11.724 9.11525Z" fill="#4E4F69"/>
<path fill-rule="evenodd" clip-rule="evenodd" d="M12.9413 14.2939H11.0589V15.941H8.48535C8.34728 15.941 8.23535 16.0529 8.23535 16.191V16.891C8.23535 17.0291 8.34728 17.141 8.48535 17.141H15.5148C15.6528 17.141 15.7648 17.0291 15.7648 16.891V16.191C15.7648 16.0529 15.6528 15.941 15.5148 15.941H12.9413V14.2939Z" fill="#4E4F69"/>
</svg>
