<svg xmlns="http://www.w3.org/2000/svg" width="16" height="20" fill="none"><mask id="a" width="16" height="20" x="0" y="0" mask-type="alpha" maskUnits="userSpaceOnUse"><path fill="#fff" d="M1.103 0h9.964c.146 0 .286.056.389.157l4.38 4.255c.105.101.164.24.164.384v14.123c0 .597-.494 1.081-1.103 1.081H1.103C.494 20 0 19.516 0 18.919V1.08C0 .484.494 0 1.103 0Z"/></mask><g mask="url(#a)"><path fill="#00AA2A" d="M1.103 0h9.964c.146 0 .286.056.389.157l4.38 4.255c.105.101.164.24.164.384v14.123c0 .597-.494 1.081-1.103 1.081H1.103C.494 20 0 19.516 0 18.919V1.08C0 .484.494 0 1.103 0Z"/><path fill="#79DD88" d="M11.297 0h4.69v4.595H12.4c-.61 0-1.103-.484-1.103-1.081V0Z"/><path fill="#fff" d="M13.443 9.508a.321.321 0 0 1 .106.238v6.2c0 .149-.124.27-.276.27H2.7a.218.218 0 0 1-.22-.216c0-.051.018-.1.051-.14l3.565-4.165a.56.56 0 0 1 .845 0l1.893 2.211 4.14-4.38a.336.336 0 0 1 .468-.018ZM4.72 7.297c.305 0 .552.242.552.54V8.92c0 .298-.247.54-.552.54H3.618a.546.546 0 0 1-.552-.54V7.837c0-.298.247-.54.552-.54H4.72Z"/></g></svg>