<svg width="16" height="20" viewBox="0 0 16 20" fill="none" xmlns="http://www.w3.org/2000/svg">
<mask id="mask0" mask-type="alpha" maskUnits="userSpaceOnUse" x="0" y="0" width="16" height="20">
<path d="M1.10345 0H11.3434C11.4888 0 11.6284 0.0562739 11.7317 0.156579L15.8366 4.14169C15.9412 4.24319 16 4.38143 16 4.52565V18.9189C16 19.516 15.506 20 14.8966 20H1.10345C0.494031 20 0 19.516 0 18.9189V1.08108C0 0.484016 0.494031 0 1.10345 0Z" fill="white"/>
</mask>
<g mask="url(#mask0)">
<path d="M1.10345 0H11.3434C11.4888 0 11.6284 0.0562739 11.7317 0.156579L15.8366 4.14169C15.9412 4.24319 16 4.38143 16 4.52565V18.9189C16 19.516 15.506 20 14.8966 20H1.10345C0.494031 20 0 19.516 0 18.9189V1.08108C0 0.484016 0.494031 0 1.10345 0Z" fill="#165DFF"/>
<path fill-rule="evenodd" clip-rule="evenodd" d="M11.5698 0H15.9836V4.32433H12.6733C12.0639 4.32433 11.5698 3.84031 11.5698 3.24324V0Z" fill="#94BFFF"/>
</g>
</svg>
