<svg xmlns="http://www.w3.org/2000/svg" width="10" fill="none" viewBox="0 0 16 20"><mask id="a" width="16" height="20" x="0" y="0" mask-type="alpha" maskUnits="userSpaceOnUse"><path fill="#fff" d="M1.103 0h10.24c.146 0 .285.056.389.157l4.105 3.985c.104.101.163.24.163.384v14.393c0 .597-.494 1.081-1.103 1.081H1.103C.494 20 0 19.516 0 18.919V1.08C0 .484.494 0 1.103 0Z"/></mask><g mask="url(#a)"><path fill="#165DFF" d="M1.103 0h10.24c.146 0 .285.056.389.157l4.105 3.985c.104.101.163.24.163.384v14.393c0 .597-.494 1.081-1.103 1.081H1.103C.494 20 0 19.516 0 18.919V1.08C0 .484.494 0 1.103 0Z"/><path fill="#94BFFF" d="M11.57 0h4.414v4.324h-3.31c-.61 0-1.104-.484-1.104-1.08V0Z"/></g></svg>