<svg xmlns="http://www.w3.org/2000/svg" width="724.797" height="588.172" data-name="Layer 1"><path fill="#f2f2f2" d="M692.771 359.27a126.332 126.332 0 0 1-2.48 4.526c-32.833 57.2-109.21 92.722-238.014 73.921-73.135-11.183-104.28 29.836-134.44 71.85-.516.726-1.03 1.45-1.555 2.176-31.583 44.059-62.852 88.24-141.036 73.554C92.36 572.192 41.208 504.893 33.293 433.043c-.097-.874-.184-1.756-.263-2.63-4.447-46.584 9.296-94.819 44.356-131.233 21.178-21.99 51.267-33.671 82.326-33.304a151.325 151.325 0 0 0 27.922-2.071c2.036-.358 4.01-.751 5.933-1.197 39.568-9.042 57.802-35.925 68.984-68.731.263-.778.525-1.556.778-2.342 25.677-78.237 13.804-188.048 153.398-171.894 124.917 9.209 216.591 78.473 261.559 158.387.446.804.891 1.608 1.328 2.412a243.744 243.744 0 0 1 26.14 71.038c.28 1.397.533 2.795.769 4.193 6.36 37.113 2.193 73.187-13.752 103.6Z"/><path fill="#fff" d="M679.614 180.44a191.296 191.296 0 0 1-30.115 28.752c-43.063 33.025-97.607 50.935-151.416 54.692a300.836 300.836 0 0 1-82.579-5.61c-27.608-5.783-53.94-15.97-79.442-27.87-24.804-11.575-48.873-24.628-73.51-36.527.262-.778.524-1.556.777-2.342 26.865 12.93 53.18 27.18 80.36 39.499 25.607 11.61 52.114 21.081 79.835 26.149a299.78 299.78 0 0 0 83.855 3.285c53.661-5.4 108.248-25.197 149.502-60.615a178.512 178.512 0 0 0 21.405-21.825c.446.804.891 1.608 1.328 2.412Z"/><path fill="#ccc" d="M493.172.822q-.094 0-.188.006c-66.216 4.148-118.086 59.419-118.086 125.83 0 66.41 51.87 121.682 118.086 125.829a2.876 2.876 0 0 0 2.169-.779 2.846 2.846 0 0 0 .906-2.094V3.702a2.886 2.886 0 0 0-2.887-2.88ZM594.413 210.686a3.713 3.713 0 0 1-2.618-1.083l-85.617-85.617a3.673 3.673 0 0 1-1.083-2.614V3.702a3.66 3.66 0 0 1 1.165-2.693 3.716 3.716 0 0 1 2.782-1c66.648 4.174 118.856 59.806 118.856 126.649a126.893 126.893 0 0 1-30.679 82.74 3.717 3.717 0 0 1-2.669 1.286q-.068.002-.137.002Z"/><path fill="#0065ff" d="M508.807 253.315a3.727 3.727 0 0 1-2.545-1.007 3.662 3.662 0 0 1-1.167-2.695v-106.17a3.697 3.697 0 0 1 6.31-2.613l74.711 74.711a3.704 3.704 0 0 1-.138 5.368 127.174 127.174 0 0 1-76.942 32.399 3.646 3.646 0 0 1-.23.007Z"/><path fill="#fff" d="M706.523 255.671c-11.987 21.256-28.91 40.005-48.288 54.866-43.063 33.025-97.606 50.935-151.415 54.692a300.836 300.836 0 0 1-82.579-5.609c-27.608-5.784-53.94-15.97-79.443-27.87-25.965-12.118-51.135-25.86-76.987-38.205-25.825-12.337-52.368-22.856-80.177-29.74 2.036-.358 4.01-.751 5.933-1.197q2.725.708 5.434 1.468c54.377 15.202 102.367 45.16 153.425 68.303 25.607 11.611 52.114 21.082 79.835 26.149a299.78 299.78 0 0 0 83.855 3.285c53.66-5.4 108.247-25.197 149.502-60.615a174.255 174.255 0 0 0 40.136-49.72c.28 1.397.533 2.795.769 4.193ZM166.675 442.304c53.573 14.975 100.944 44.277 151.162 67.264-.516.725-1.03 1.45-1.555 2.175a512.134 512.134 0 0 1-3.81-1.765c-25.964-12.118-51.135-25.86-76.987-38.205-26.376-12.599-53.495-23.301-81.95-30.177a366.18 366.18 0 0 0-120.242-8.553c-.097-.874-.184-1.756-.263-2.63a368.936 368.936 0 0 1 133.645 11.89Z"/><path fill="#ccc" d="M382 526.601H1a1 1 0 1 1 0-2h381a1 1 0 0 1 0 2Z"/><circle cx="155.119" cy="367.136" r="24.561" fill="#a0616a"/><path fill="#a0616a" d="m247.019 540.442.573 12.247-46.963 8.04-.846-18.074 47.236-2.213z"/><path fill="#2f2e41" d="m258.744 536.763 1.303 27.84-.5.024a18.991 18.991 0 0 1-11.016-2.665c-2.998-1.91-4.725-4.557-4.86-7.451l-.797-17.005Z"/><path fill="#a0616a" d="m245.705 560.594 12.26-.001 5.832-47.288-18.094.001.002 47.288z"/><path fill="#2f2e41" d="M242.578 556.591h24.144a15.386 15.386 0 0 1 15.387 15.385v.5l-39.53.002Z"/><path fill="#a0616a" d="M129.962 549.139a10.743 10.743 0 0 0 2.501-16.282l9.786-97.354-23.306 1.629-2.29 95.184a10.8 10.8 0 0 0 13.31 16.823Z"/><path fill="#0065ff" d="m142.135 452.378-24.15-2.943a4.817 4.817 0 0 1-4.061-6.058l6.43-23.386a13.377 13.377 0 0 1 26.549 3.314l.63 24.168a4.817 4.817 0 0 1-5.398 4.905Z"/><path fill="#2f2e41" d="M138.756 562.929a16.662 16.662 0 0 1-12.634-26.002l15.774-16.376 57.5-51.5 30.74-25.509a13.765 13.765 0 0 1 22.153 7.29l16.06 64.969a4.49 4.49 0 0 1-2.844 5.314l-17.509 6.303a4.5 4.5 0 0 1-5.872-3.074l-6.66-24.976-37.058 35.427 11.562 4.256a4.519 4.519 0 0 1 2.777 5.444l-3.737 13.238a4.482 4.482 0 0 1-4.2 3.275Z"/><path fill="#0065ff" d="m137.186 526.003-1.521-55.554-9.594-24.366a36.666 36.666 0 0 1 26.67-49.346q1.185-.246 2.363-.48a36.66 36.66 0 0 1 43.623 32.373l4.509 41.822-.019.08c-7.189 31.978-27.992 49.577-65.47 55.384Z"/><path fill="#a0616a" d="M159.877 487.414a10.526 10.526 0 0 1 1.653-.123l27.759-41.096-5.257-10.84 15.323-10.073 11.172 18.287a8 8 0 0 1-.913 9.557l-37.992 41.713a10.497 10.497 0 1 1-11.745-7.425Z"/><path fill="#0065ff" d="M186.86 445.43a4.495 4.495 0 0 1-2.862-2.419l-9.6-20.443a12.497 12.497 0 0 1 20.779-13.892l15.168 16.833a4.5 4.5 0 0 1-.853 6.76l-18.93 12.576a4.495 4.495 0 0 1-3.703.586Z"/><path fill="#ccc" d="M480.883 386.187h-81.07a4.406 4.406 0 0 1 0-8.812h81.07a4.406 4.406 0 0 1 0 8.812Z"/><path fill="#3f3d56" d="M375.58 390.593a9.253 9.253 0 1 1 9.253-9.252 9.263 9.263 0 0 1-9.253 9.252Z"/><path fill="#ccc" d="M480.883 412.623h-81.07a4.406 4.406 0 1 1 0-8.812h81.07a4.406 4.406 0 1 1 0 8.812Z"/><path fill="#3f3d56" d="M375.58 417.03a9.253 9.253 0 1 1 9.253-9.253 9.263 9.263 0 0 1-9.253 9.252Z"/><path fill="#ccc" d="M480.883 439.059h-81.07a4.406 4.406 0 0 1 0-8.812h81.07a4.406 4.406 0 0 1 0 8.812Z"/><path fill="#3f3d56" d="M375.58 443.465a9.253 9.253 0 1 1 9.253-9.253 9.263 9.263 0 0 1-9.253 9.253ZM504.175 408.098h33.486a.881.881 0 0 0 .881-.88V200.205a.881.881 0 1 0-1.762 0v206.13h-32.605a.881.881 0 1 0 0 1.762Z"/><path fill="#ccc" d="M647.661 64.906a11.358 11.358 0 1 1 10.41-12.233 11.358 11.358 0 0 1-10.41 12.233Zm-.14-1.742a9.61 9.61 0 1 0-10.351-8.807 9.61 9.61 0 0 0 10.351 8.807Z"/><circle cx="686.77" cy="28.774" r="6.989" fill="#ccc"/><circle cx="721.125" cy="6.815" r="3.671" fill="#ccc"/><path fill="#ccc" d="M594.295 288.46a11.358 11.358 0 1 1-3.215-15.737 11.37 11.37 0 0 1 3.215 15.737ZM576.8 276.9a9.61 9.61 0 1 0 13.316-2.72 9.621 9.621 0 0 0-13.316 2.72Z"/><circle cx="607.901" cy="323.241" r="6.989" fill="#ccc"/><circle cx="627.397" cy="359.051" r="3.671" fill="#ccc"/><path fill="#ccc" d="M312.278 97.706a11.358 11.358 0 1 1 15.225 5.117 11.37 11.37 0 0 1-15.225-5.117Zm18.777-9.33a9.61 9.61 0 1 0-4.33 12.882 9.621 9.621 0 0 0 4.33-12.883Z"/><circle cx="275.365" cy="92.022" r="6.989" fill="#ccc"/><circle cx="234.607" cy="90.915" r="3.671" fill="#ccc"/><path fill="#2f2e41" d="m181.075 369.285-1.024-2.61c-2.824-7.198-9.578-12.732-16.806-13.769a19.208 19.208 0 0 0-18.638 8.642 42.1 42.1 0 0 0-3.932 9.202c-.322.957-.647 1.65-1.27 1.859-.703.252-1.402-.18-2.56-.898a1.602 1.602 0 0 0-2.43 1.578l1.214 8.67-1.016-.905c-6.613-5.886-7.971-16.961-3.195-23.988l-10.87 2.233.489-.934a37.127 37.127 0 0 1 21.644-18.28l-10.413-2.293 1.053-.649c9.325-5.744 21.627-5.582 31.34.403a35.543 35.543 0 0 1 16.355 28.936Z"/></svg>