<svg viewBox="0 0 8885 1024" width="208" height="24"  xmlns="http://www.w3.org/2000/svg"><defs><style></style></defs><path d="M1711.401 466.746a158.225 158.225 0 0045.915-47.897 145.333 145.333 0 0021.801-77.956 178.01 178.01 0 00-91.169-158.225 192.578 192.578 0 00-66.064-22.462 664.279 664.279 0 00-104.382-6.606H1352.34v677.492h248.402a233.208 233.208 0 00158.555-55.495 176.723 176.723 0 0066.065-137.744 182.999 182.999 0 00-33.033-110.988 185.972 185.972 0 00-80.929-60.12zm-63.091-54.173a129.486 129.486 0 01-85.884 25.435h-105.043V244.769h99.097a143.03 143.03 0 0191.83 24.774 101.74 101.74 0 010 143.03zm-190.927 118.255h124.862a173.42 173.42 0 01104.712 26.096 102.4 102.4 0 010 152.609 180.686 180.686 0 01-107.024 26.426h-121.559l-.99-205.13zm1058.684-281.104h-97.445v110.658H2233.31l-120.568 292.335c-1.982 4.955-5.946 15.526-11.561 33.033-3.303 9.91-6.937 21.47-11.231 33.032-3.964-13.543-7.267-25.435-10.57-35.345a202.62 202.62 0 00-10.57-31.05l-118.917-292.335h-108.346l192.909 462.451-83.242 198.194h99.097l252.367-574.431h115.282v282.756a116.637 116.637 0 0028.408 87.535 132.129 132.129 0 0092.16 26.757h53.843v-93.482h-50.87a25.105 25.105 0 01-19.82-6.606 33.032 33.032 0 01-6.276-23.783V444.945h76.966v-84.563h-76.966l.661-110.658zm364.676 99.097a234.265 234.265 0 00-175.07 69.367 271.855 271.855 0 00-50.54 270.865 225.94 225.94 0 0046.245 75.974 239.814 239.814 0 0082.911 57.476 266.57 266.57 0 00103.06 20.15 284.077 284.077 0 00120.568-25.105 289.363 289.363 0 0099.097-76.634l5.946-6.937-71.02-56.816-5.615 5.946a211.406 211.406 0 01-66.064 52.852 175.732 175.732 0 01-78.287 17.837A158.885 158.885 0 012784.29 716.8a127.835 127.835 0 01-44.924-86.214h389.45v-14.534a275.82 275.82 0 00-67.716-193.24 233.208 233.208 0 00-180.356-73.991zm-99.097 122.55a145.342 145.342 0 0197.115-33.033 140.717 140.717 0 0195.133 33.032 134.441 134.441 0 0144.263 78.617h-281.765a132.129 132.129 0 0146.245-78.617h-.99zm886.256-231.557c-66.065-57.146-162.519-86.214-288.041-86.214h-145.342v677.492h145.342c125.522 0 222.307-29.069 288.04-86.215C3733.637 687.732 3767 602.508 3767 492.511s-32.702-195.22-99.097-252.697zm-274.828 495.484h-54.834V248.733h54.834c89.517 0 157.894 20.48 202.818 61.11a280.741 280.741 0 010 365.006c-44.924 40.96-113.962 61.44-202.818 61.44v-.99zm817.548-315.458a217.815 217.815 0 00-62.1-46.245 226.238 226.238 0 00-99.097-22.132 231.292 231.292 0 00-173.09 66.065 242.49 242.49 0 00-66.064 175.731 260.658 260.658 0 0016.516 93.151 236.775 236.775 0 00128.297 131.04c29.63 12.519 61.506 18.828 93.68 18.596a222.01 222.01 0 0099.097-20.81 187.755 187.755 0 0057.476-43.602V830.1h99.097V360.38h-91.5l-2.312 59.459zm-43.603 63.092a170.678 170.678 0 010 224.289 153.6 153.6 0 01-214.049 0 171.503 171.503 0 010-224.62 153.27 153.27 0 01214.05 0v.33zm433.714-131.469a175.434 175.434 0 00-74.323 15.856 195.518 195.518 0 00-51.2 33.032v-40.63h-96.454v470.71h96.454V570.467a152.675 152.675 0 0128.078-99.097 104.844 104.844 0 0183.571-33.032 81.26 81.26 0 0170.69 29.73c17.672 29.893 25.765 64.478 23.122 99.096v264.258h97.115V559.897a228.583 228.583 0 00-47.236-151.949 161.924 161.924 0 00-129.817-56.485zm565.842 355.427a124.528 124.528 0 01-43.932 35.015 142.303 142.303 0 01-60.12 11.891 128.826 128.826 0 01-101.408-43.602 185.542 185.542 0 010-228.914 127.538 127.538 0 01101.079-44.263 144.087 144.087 0 0156.815 10.24 123.885 123.885 0 0143.933 33.032l6.606 7.267 62.762-72.67-5.946-5.616a235.19 235.19 0 00-73.992-45.255 267.693 267.693 0 00-90.178-14.864 257.321 257.321 0 00-95.794 17.507 220.325 220.325 0 00-76.965 50.87 238.427 238.427 0 00-52.191 80.598 263.96 263.96 0 00-17.838 99.097 263.928 263.928 0 0017.838 99.097 238.823 238.823 0 0052.19 80.268 222.803 222.803 0 0076.966 51.2 273.177 273.177 0 00186.963 1.982 252.697 252.697 0 0077.295-49.218l5.946-5.615-64.083-73.662-5.946 5.615zm598.545-90.838a274.498 274.498 0 00-68.046-193.24 253.324 253.324 0 00-353.115-4.624 250.98 250.98 0 00-66.065 180.687 257.817 257.817 0 0016.186 90.178 231.11 231.11 0 0046.575 75.974 238.328 238.328 0 0082.581 57.476 269.543 269.543 0 00103.391 20.15 281.435 281.435 0 00120.238-25.105 293.59 293.59 0 0099.096-76.634l5.946-6.937-71.35-56.816-5.285 5.946a209.127 209.127 0 01-66.064 52.852 173.122 173.122 0 01-77.956 17.837 158.885 158.885 0 01-107.686-36.996 128.264 128.264 0 01-45.254-86.214h389.78l-2.972-14.534zM5420.924 471.37a145.342 145.342 0 0197.115-33.032 140.057 140.057 0 0194.802 33.032 132.063 132.063 0 0144.594 78.617H5375.67a132.228 132.228 0 0145.254-78.617zM179.034 823.494L5.286 868.088V77.626l173.75 44.593v701.275z" fill="#325AB4"></path><path d="M1016.733 869.74l-173.42 44.593V31.38l173.42 44.593V869.74z" fill="#78E6DC"></path><path d="M453.863 847.277l-173.42 44.594V426.446l173.42 44.594v376.237z" fill="#3C8CFF"></path><path d="M567.494 357.74l173.42-44.594V778.57l-173.42-44.593V357.739z" fill="#00C8D2"></path><path d="M8468.81 179.365h-279.453v62.1h279.453v-62.1zm348.821 42.942h-142.7l9.58-61.77h-62.761l-9.91 61.77h-77.956v62.1h68.046l-78.286 561.55h66.064l75.975-561.55h126.183a19.489 19.489 0 0119.489 19.82v486.235H8705.32v62.1h168.465v-573.44a56.716 56.716 0 00-56.155-56.815zm-662.297 212.398h83.241l-61.11 410.26h259.304a52.852 52.852 0 0052.852-52.521V637.853h-62.101V757.43a25.633 25.633 0 01-7.564 18.101 25.765 25.765 0 01-18.201 7.334h-151.618l49.878-348.16h202.819v-62.101h-347.5v62.1zm-363.355-40.96l-19.819-171.438h-62.1l19.819 171.438h62.1zm-5.945 66.394h-62.101L7701.8 701.935h62.1l22.133-241.796zm301.254-237.832h-62.1l-19.82 171.438h62.1l19.82-171.438zm-81.59 237.832l22.132 241.796h62.1L8067.8 460.14h-62.1z" fill="#325AB4"></path><path d="M7985.548 164.5h-61.77v690.705h162.85v-62.1h-101.08V164.5zm-188.614 607.134a21.438 21.438 0 01-21.14 21.47h-53.843v62.101h80.268a56.915 56.915 0 0056.816-56.485l21.14-634.55h-62.1l-21.14 607.464zm-204.47-171.438h84.563v-62.1h-83.241v-81.26h83.241V225.61a56.155 56.155 0 00-56.155-56.155h-204.8v286.06h115.613V758.09l-43.272 11.231V501.43h-62.1v284.077l-35.015 8.919v66.064l291.675-75.974v-64.082l-89.187 23.122-1.321-143.36zm21.141-351.463v146.002h-136.753V233.538h120.898a15.922 15.922 0 0115.855 15.195zm-386.147 146.333h-549.326v62.1h147.323v418.85h62.101v-418.85h315.789a18.828 18.828 0 0118.828 18.829v297.29h-106.694v62.1h168.464V452.213a57.146 57.146 0 00-16.417-40.3 56.584 56.584 0 00-40.068-16.846zM7192.444 164.5h-62.1v44.263h-298.282V164.5h-62.431v44.263h-120.898v62.1h120.898v83.242h62.43v-83.241h298.282v83.24h62.1v-83.24h139.067v-62.101h-139.066V164.5zm-669.234 44.263h-253.687V164.17h-62.101v44.594h-297.29v128.165h62.1v-66.064h528.516a16.318 16.318 0 0115.261 9.91 16.372 16.372 0 011.256 6.275v49.879h62.1V266.57a57.047 57.047 0 00-16.054-40.596 56.948 56.948 0 00-40.1-17.21zm-63.422 235.52a49.714 49.714 0 0011.562-54.503 53.48 53.48 0 00-53.182-33.033H6000.64v62.101h373.925a7.234 7.234 0 016.937 3.964 12.288 12.288 0 010 11.23l-127.505 117.265h-343.535v62.101h349.812v192.248h-155.582v62.1h218.013V613.41h246.09v-62.1h-223.629c21.471-20.48 76.635-72.01 114.622-107.025z" fill="#325AB4"></path></svg>
