<svg width="103" height="28" viewBox="0 0 103 28" fill="none" xmlns="http://www.w3.org/2000/svg">
<path d="M39.588 14.6179V16.1299H43.224L42.576 16.4539C43.008 17.2579 43.416 18.0739 43.8 18.9019L45.096 18.2179C44.76 17.5219 44.412 16.8259 44.052 16.1299H48.066V9.72189H45.798L47.076 8.20989V6.78789H42.954C43.122 6.48789 43.29 6.18189 43.458 5.86989L41.748 5.34789C40.908 6.95589 39.864 8.40789 38.616 9.70389L39.156 7.97589V6.33789H34.224V21.5839H35.88V17.0839L36.168 18.5059H36.906C37.278 18.5179 37.638 18.4699 37.986 18.3619C38.286 18.2539 38.532 18.0799 38.724 17.8399C38.856 17.6359 38.958 17.4079 39.03 17.1559C39.138 16.7119 39.192 16.2619 39.192 15.8059C39.18 15.1219 39.066 14.4499 38.85 13.7899C38.622 13.1179 38.322 12.4759 37.95 11.8639L38.526 9.97389L39.66 11.0359L40.056 10.6399V11.2519H46.428V12.2059H39.768V13.6639H46.428V14.6179H39.588ZM40.776 16.8319V19.5139C40.764 19.8379 40.8 20.1619 40.884 20.4859C40.944 20.6539 41.034 20.8099 41.154 20.9539C41.322 21.1339 41.526 21.2599 41.766 21.3319C42.066 21.4039 42.378 21.4399 42.702 21.4399H44.52C44.856 21.4399 45.192 21.4039 45.528 21.3319C45.708 21.2839 45.876 21.2119 46.032 21.1159C46.212 20.9599 46.344 20.7739 46.428 20.5579C46.524 20.2699 46.578 19.9759 46.59 19.6759C46.626 19.0999 46.644 18.5179 46.644 17.9299L45.15 17.6599C45.126 18.1639 45.12 18.6619 45.132 19.1539C45.144 19.3819 45.096 19.5859 44.988 19.7659C44.928 19.8259 44.85 19.8679 44.754 19.8919C44.622 19.9159 44.496 19.9279 44.376 19.9279H43.08C42.948 19.9279 42.822 19.9099 42.702 19.8739C42.618 19.8499 42.552 19.8139 42.504 19.7659C42.408 19.5739 42.372 19.3639 42.396 19.1359V16.8319H40.776ZM35.88 7.97589H37.482L36.276 12.0979C36.66 12.6619 36.972 13.2619 37.212 13.8979C37.428 14.4619 37.548 15.0379 37.572 15.6259C37.572 15.8539 37.554 16.0759 37.518 16.2919C37.482 16.4479 37.416 16.5799 37.32 16.6879C37.236 16.7599 37.14 16.8139 37.032 16.8499C36.84 16.8979 36.648 16.9159 36.456 16.9039H35.88V7.97589ZM46.338 17.1379C46.89 18.3979 47.43 19.6639 47.958 20.9359L49.362 20.3599C48.834 19.0759 48.282 17.7979 47.706 16.5259L46.338 17.1379ZM37.716 20.4139L39.156 21.0979C39.744 19.8379 40.242 18.5419 40.65 17.2099L39.246 16.7239C38.838 18.0079 38.328 19.2379 37.716 20.4139ZM42 8.28189H45.006L43.746 9.72189H40.866C41.262 9.26589 41.64 8.78589 42 8.28189ZM50.4326 10.2259V12.0439H52.7186C51.9626 13.8559 50.9906 15.5299 49.8026 17.0659L50.8106 18.9199C51.6386 17.8399 52.3646 16.6819 52.9886 15.4459V21.5299H54.8246V14.6359C55.3646 15.2359 55.8986 15.8419 56.4266 16.4539L57.6506 15.1399C57.4226 15.9679 57.1886 16.7839 56.9486 17.5879C56.8646 18.2239 56.5526 18.6619 56.0126 18.9019L56.6606 20.7019C58.4486 20.4019 60.2486 20.1799 62.0606 20.0359C62.4566 19.9999 62.8586 19.9639 63.2666 19.9279L63.6806 21.3139L65.5706 20.7559C64.6226 17.9599 63.6806 15.1579 62.7446 12.3499L61.0166 12.9439C61.5926 14.6719 62.1566 16.4059 62.7086 18.1459L58.6946 18.4879C59.2346 16.7239 59.7266 14.9479 60.1706 13.1599C60.7586 10.7839 61.2926 8.39589 61.7726 5.99589L59.8646 5.61789C59.2526 8.78589 58.5266 11.9239 57.6866 15.0319C56.8586 14.1919 56.0366 13.3399 55.2206 12.4759L54.8246 12.9079V12.0439H57.3626V10.2259H54.8246V8.20989C55.6526 8.05389 56.4806 7.87389 57.3086 7.66989L57.0206 5.81589C54.8486 6.36789 52.6526 6.76389 50.4326 7.00389L50.5946 8.82189C51.3866 8.73789 52.1846 8.63589 52.9886 8.51589V10.2259H50.4326ZM75.7852 5.58189V11.3059H71.7892V13.2139H75.7852V21.5479H77.7112V13.2139H81.7252V11.3059H77.7112V5.58189H75.7852ZM66.5332 10.8919V12.7819H68.6212V18.7219C68.6332 18.9499 68.6092 19.1719 68.5492 19.3879C68.4772 19.5799 68.3632 19.7299 68.2072 19.8379L69.4132 21.2419C70.7932 20.0299 72.2332 18.8779 73.7332 17.7859L73.0672 15.9139L70.5832 17.9119V10.8919H66.5332ZM67.6672 6.64389C68.5312 7.80789 69.3892 8.98389 70.2412 10.1719L71.8612 8.94789C70.9852 7.78389 70.0912 6.63789 69.1792 5.50989L67.6672 6.64389ZM82.7237 9.39789L84.2357 10.3519L84.6497 9.93789V16.6519H86.7377L86.7017 17.7139H82.9037V19.2259H86.2337C85.9937 19.4659 85.7297 19.6699 85.4417 19.8379C84.9257 20.1019 84.3977 20.3419 83.8577 20.5579L84.8297 21.9799C85.6457 21.6559 86.4017 21.2299 87.0977 20.7019C87.6137 20.3059 88.0097 19.8139 88.2857 19.2259H92.6777V21.5479H94.4417V19.2259H98.0417V17.7139H94.4417V16.6519H96.3497V9.59589H94.7117L95.6477 8.83989L95.0897 8.15589H97.9157V6.66189H93.2717L93.7217 5.81589L92.0837 5.23989C91.6637 6.10389 91.1957 6.93189 90.6797 7.72389V6.66189H86.9897C87.1457 6.38589 87.2957 6.09789 87.4397 5.79789L85.8197 5.22189C85.3997 6.01389 84.9197 6.76389 84.3797 7.47189C83.8877 8.16789 83.3357 8.80989 82.7237 9.39789ZM86.4317 10.9279H94.5497V11.6119H86.4317V10.9279ZM86.4317 12.7819H94.5497V13.4659H86.4317V12.7819ZM86.4317 15.3019V14.6359H94.5497V15.3019H86.4317ZM88.5377 16.6519H92.6777V17.7139H88.5377C88.5377 17.3659 88.5377 17.0119 88.5377 16.6519ZM93.3437 8.37189L94.3517 9.59589H91.4357C91.7837 9.13989 92.1137 8.65989 92.4257 8.15589H93.5957L93.3437 8.37189ZM89.6537 9.10989L90.9857 9.59589H87.7457L88.7897 8.96589C88.5977 8.70189 88.4057 8.43189 88.2137 8.15589H90.3737C90.1457 8.49189 89.9057 8.80989 89.6537 9.10989ZM86.5937 8.33589L87.4037 9.59589H84.9557C85.3517 9.13989 85.7237 8.65989 86.0717 8.15589H86.8997L86.5937 8.33589Z" fill="white"/>
<path fill-rule="evenodd" clip-rule="evenodd" d="M11.4451 9.30078L7.26147 11.6938V16.7031L11.4451 19.1056L15.5613 16.7031V11.6938L11.4451 9.30078Z" fill="#16FCFF"/>
<path fill-rule="evenodd" clip-rule="evenodd" d="M5.63148 15.8164V10.9345L16.9897 4.05658L11.4451 1.06836L0.324463 7.81697V12.7687L5.63148 15.8164Z" fill="url(#paint0_linear)"/>
<path fill-rule="evenodd" clip-rule="evenodd" d="M15.9385 18.0721L11.6535 20.5132L0.324463 14.1924V20.5132L11.5707 26.6067L15.9169 24.1308L15.9385 18.0721Z" fill="url(#paint1_linear)"/>
<path fill-rule="evenodd" clip-rule="evenodd" d="M12.7651 8.13765L17.0501 10.5786V23.6622L23 20.2503L22.9639 7.27183L18.3754 4.70605L12.7651 8.13765Z" fill="url(#paint2_linear)"/>
<defs>
<linearGradient id="paint0_linear" x1="14.79" y1="3.37536" x2="0.0250383" y2="13.0649" gradientUnits="userSpaceOnUse">
<stop stop-color="#288EF4"/>
<stop offset="0.97969" stop-color="#6798FF"/>
</linearGradient>
<linearGradient id="paint1_linear" x1="0.025048" y1="15.3717" x2="15.2514" y2="24.1384" gradientUnits="userSpaceOnUse">
<stop stop-color="#288EF4"/>
<stop offset="1" stop-color="#6798FF"/>
</linearGradient>
<linearGradient id="paint2_linear" x1="23.0953" y1="19.9863" x2="13.8672" y2="7.52846" gradientUnits="userSpaceOnUse">
<stop stop-color="#288EF4"/>
<stop offset="1" stop-color="#6798FF"/>
</linearGradient>
</defs>
</svg>
