<svg width="103" height="28" viewBox="0 0 103 28" fill="none" xmlns="http://www.w3.org/2000/svg">
<path d="M46.328 18.56L45.256 18.704V21.68H43.496V18.928L39.384 19.44L39.24 17.952L40.168 17.84V8.144H39.24L39.656 6.704H46.152V8.144H45.256V17.216L46.184 17.088L46.328 18.56ZM48.552 6.128L49.848 8.704L48.76 9.2H50.6L52.024 6.128L53.656 6.688L52.424 9.2H54.264V10.656H51.096V12.512C51.096 12.896 51.08 13.264 51.048 13.616H54.52V15.072H51.592C51.752 15.5413 51.944 16.016 52.168 16.496C52.392 16.976 52.6373 17.4507 52.904 17.92C53.1813 18.3787 53.48 18.8267 53.8 19.264C54.1307 19.7013 54.472 20.112 54.824 20.496L53.464 21.648C52.824 20.912 52.2427 20.128 51.72 19.296C51.1973 18.4533 50.7653 17.5467 50.424 16.576C50.0827 17.5467 49.6347 18.448 49.08 19.28C48.5253 20.112 47.88 20.9067 47.144 21.664L45.752 20.592C46.5733 19.7813 47.2667 18.9173 47.832 18C48.3973 17.0827 48.8027 16.1067 49.048 15.072H45.832L46.232 13.616H49.288C49.2987 13.4773 49.304 13.344 49.304 13.216C49.3147 13.0773 49.32 12.9387 49.32 12.8V10.656H46.136L46.536 9.2H48.248L47 6.784L48.552 6.128ZM41.928 17.632L43.496 17.424V15.2H41.928V17.632ZM41.928 10.256H43.496V8.144H41.928V10.256ZM41.928 13.776H43.496V11.68H41.928V13.776ZM66.424 8.128C66.2533 8.128 66.168 8.21333 66.168 8.384V21.696H64.392V7.584C64.392 7.28533 64.4827 7.05067 64.664 6.88C64.8453 6.70933 65.0853 6.624 65.384 6.624H69.544C69.9493 6.624 70.2373 6.74667 70.408 6.992C70.5893 7.22667 70.6213 7.536 70.504 7.92L69.08 12.736C69.0587 12.7893 69.048 12.864 69.048 12.96C69.0587 13.056 69.0907 13.1307 69.144 13.184C69.4747 13.6107 69.752 14.0747 69.976 14.576C70.2107 15.0667 70.376 15.5627 70.472 16.064C70.5787 16.5547 70.616 17.024 70.584 17.472C70.552 17.9093 70.4453 18.2987 70.264 18.64C70.0933 18.9707 69.8373 19.2267 69.496 19.408C69.1547 19.5787 68.728 19.6373 68.216 19.584L66.824 19.456V17.968L67.992 18.08C68.312 18.112 68.5467 17.9947 68.696 17.728C68.8453 17.4507 68.904 17.0987 68.872 16.672C68.84 16.2347 68.7173 15.7547 68.504 15.232C68.2907 14.7093 67.9867 14.2133 67.592 13.744C67.4853 13.6267 67.416 13.488 67.384 13.328C67.3627 13.168 67.3733 13.008 67.416 12.848L68.712 8.128H66.424ZM60.6 6.096V8.032H63.496V9.472H60.6V11.68H63.176V13.136H60.6V13.44C60.6 13.8027 60.5893 14.1547 60.568 14.496C60.5573 14.8267 60.5307 15.1467 60.488 15.456H63.72V16.912H60.232C59.9867 17.904 59.5867 18.7893 59.032 19.568C58.488 20.3467 57.7307 21.0613 56.76 21.712L55.496 20.384C56.9147 19.52 57.8693 18.3627 58.36 16.912H55.288L55.752 15.456H58.696C58.7387 15.1787 58.7707 14.8907 58.792 14.592C58.8133 14.2933 58.824 13.9787 58.824 13.648V13.136H55.928L56.376 11.68H58.824V9.472H55.608L56.056 8.032H58.824V6.096H60.6ZM80.008 20.384C80.008 20.896 79.88 21.248 79.624 21.44C79.368 21.6427 78.984 21.728 78.472 21.696L75.128 21.504L75.112 20.112L77.656 20.288C77.88 20.3093 78.0293 20.2933 78.104 20.24C78.1893 20.1867 78.232 20.0533 78.232 19.84V17.552H71.368L71.768 16.096H78.264C78.3173 15.808 78.4453 15.568 78.648 15.376L80.952 13.52H74.264L74.728 12.08H82.712C82.9573 12.08 83.1547 12.1387 83.304 12.256C83.464 12.3627 83.5653 12.5013 83.608 12.672C83.6613 12.832 83.656 13.008 83.592 13.2C83.528 13.3813 83.4 13.5467 83.208 13.696L80.344 16.016C80.3227 16.0373 80.3067 16.0533 80.296 16.064C80.2853 16.064 80.2747 16.0747 80.264 16.096H86.712V17.552H80.008V20.384ZM74.104 6.416L75.736 8.816L74.808 9.296H78.424L77.144 6.96L78.68 6.16L80.104 8.704L78.92 9.296H81.64L83.368 6.304L85.048 7.008L83.624 9.296H85.608C85.8213 9.296 86.0027 9.376 86.152 9.536C86.312 9.68533 86.392 9.86667 86.392 10.08V12.944H84.632V11.104C84.632 10.8693 84.5093 10.752 84.264 10.752H73.688C73.4427 10.752 73.32 10.8693 73.32 11.104V12.944H71.56V10.08C71.56 9.86667 71.6347 9.68533 71.784 9.536C71.944 9.376 72.136 9.296 72.36 9.296H73.928L72.616 7.216L74.104 6.416ZM88.376 8.448L88.696 6.992H100.264C100.488 6.992 100.675 7.072 100.824 7.232C100.984 7.392 101.064 7.57867 101.064 7.792V20.24C101.064 20.7307 100.957 21.088 100.744 21.312C100.531 21.5467 100.173 21.6533 99.672 21.632L94.968 21.36L94.952 19.872L98.712 20.128C98.9467 20.1493 99.1013 20.1173 99.176 20.032C99.2507 19.9467 99.288 19.7973 99.288 19.584V8.848C99.288 8.73067 99.2507 8.63467 99.176 8.56C99.1013 8.48533 99.0053 8.448 98.888 8.448H88.376ZM97.992 15.504L88.472 20.464L87.688 18.912L97.24 13.92L97.992 15.504ZM90.568 9.808L95.16 12.48L94.2 13.984L89.656 11.216L90.568 9.808Z" fill="white"/>
<path fill-rule="evenodd" clip-rule="evenodd" d="M12.3753 8.92053L7.84174 11.5137V16.9421L12.3753 19.5455L16.8358 16.9421V11.5137L12.3753 8.92053Z" fill="#16FCFF"/>
<path fill-rule="evenodd" clip-rule="evenodd" d="M6.0754 15.9817V10.6914L18.3837 3.23818L12.3753 0L0.324463 7.31312V12.679L6.0754 15.9817Z" fill="url(#paint0_linear)"/>
<path fill-rule="evenodd" clip-rule="evenodd" d="M17.2446 18.4264L12.6012 21.0715L0.324463 14.222L0.324463 21.0715L12.5114 27.6747L17.2212 24.9918L17.2446 18.4264Z" fill="url(#paint1_linear)"/>
<path fill-rule="evenodd" clip-rule="evenodd" d="M13.8057 7.66016L18.4492 10.3053V24.4833L24.8968 20.786L24.8576 6.72193L19.8853 3.94153L13.8057 7.66016Z" fill="url(#paint2_linear)"/>
<defs>
<linearGradient id="paint0_linear" x1="16" y1="2.49998" x2="-8.03617e-06" y2="13" gradientUnits="userSpaceOnUse">
<stop stop-color="#286AF4"/>
<stop offset="0.97969" stop-color="#3E97FE"/>
</linearGradient>
<linearGradient id="paint1_linear" x1="2.69141e-06" y1="15.5" x2="16.5" y2="25" gradientUnits="userSpaceOnUse">
<stop stop-color="#286AF4"/>
<stop offset="1" stop-color="#3E97FE"/>
</linearGradient>
<linearGradient id="paint2_linear" x1="25" y1="20.5" x2="15" y2="7.00002" gradientUnits="userSpaceOnUse">
<stop stop-color="#286AF4"/>
<stop offset="1" stop-color="#3E97FE"/>
</linearGradient>
</defs>
</svg>
