<svg xmlns="http://www.w3.org/2000/svg" width="112" height="112" fill="none"><path fill="#D6DAE1" d="M97.398 21.537H20.306V85.41h77.092V21.537Z"/><path fill="#EFF2F4" d="M34.64 22.556 24.883 65.13c-.497 2.217-4.29 11.982-6.081 13.52l62.26 14.108s3.813-1.837 6.58-14.128l9.665-42.057L34.64 22.556Z"/><path stroke="#231815" stroke-miterlimit="10" d="M44.852 28.706a7.2 7.2 0 0 1-4.01-1.22 7.234 7.234 0 0 1-2.657-3.248 7.26 7.26 0 0 1 1.564-7.89 7.196 7.196 0 0 1 7.864-1.57 7.22 7.22 0 0 1 3.239 2.668 7.254 7.254 0 0 1 1.216 4.021v.29M71.08 28.706a7.2 7.2 0 0 1-4.01-1.22 7.234 7.234 0 0 1-2.657-3.248 7.26 7.26 0 0 1 1.564-7.89 7.196 7.196 0 0 1 7.865-1.57 7.22 7.22 0 0 1 3.238 2.668 7.254 7.254 0 0 1 1.216 4.021v.29"/><path fill="#fff" d="m50.724 44.79-9.384-2.105-1.833 8.225 9.384 2.104 1.833-8.224ZM66.83 48.396l-9.384-2.104-1.833 8.224 9.384 2.104 1.833-8.224Z"/><path fill="#005DFF" d="m82.473 51.906-9.384-2.104-1.832 8.224 9.383 2.104 1.833-8.224Z"/><path fill="#fff" d="m79.07 67.198-9.385-2.104-1.832 8.224 9.384 2.104 1.832-8.224Z"/><path fill="#FF3640" d="m21.003 99.349-5.326-6.45 34.65-30.075 5.325 6.46-34.65 30.065ZM57.652 58.781l3.534 4.284 1.692-5.372-.259-.42-4.967 1.508Z"/><path stroke="#231815" stroke-miterlimit="10" d="m51.47 60.098 11.607-2.875-4.38 11.113M45.021 72.97l-31.474 27.338"/></svg>