<svg width="16" height="4" viewBox="0 0 16 4" fill="none" xmlns="http://www.w3.org/2000/svg">
<path fill-rule="evenodd" clip-rule="evenodd" d="M2.25 0C3.28553 0 4.125 0.839466 4.125 1.875C4.125 2.91053 3.28553 3.75 2.25 3.75C1.21447 3.75 0.375 2.91053 0.375 1.875C0.375 0.839466 1.21447 0 2.25 0ZM11.875 1.875C11.875 0.839466 12.7145 0 13.75 0C14.7855 0 15.625 0.839466 15.625 1.875C15.625 2.91053 14.7855 3.75 13.75 3.75C12.7145 3.75 11.875 2.91053 11.875 1.875ZM9.875 1.875C9.875 0.839466 9.03553 0 8 0C6.96447 0 6.125 0.839466 6.125 1.875C6.125 2.91053 6.96447 3.75 8 3.75C9.03553 3.75 9.875 2.91053 9.875 1.875Z" fill="#424E66"/>
</svg>
