<svg width="16" height="16" viewBox="0 0 16 16" fill="none" xmlns="http://www.w3.org/2000/svg">
<path d="M8 1.2C11.7555 1.2 14.8 4.24446 14.8 8C14.8 11.7555 11.7555 14.8 8 14.8C4.24446 14.8 1.2 11.7555 1.2 8C1.2 4.24446 4.24446 1.2 8 1.2Z" stroke="#8A909A" stroke-width="1.4"/>
<path fill-rule="evenodd" clip-rule="evenodd" d="M9.90608 4.81466C9.37371 4.43822 8.70515 4.25 7.90037 4.25C7.28789 4.25 6.77156 4.38245 6.35136 4.64735C5.81484 4.98155 5.48059 5.50354 5.34861 6.21335C5.33959 6.26186 5.33078 6.32265 5.32217 6.39574L5.32055 6.41417L5.32001 6.43267C5.32001 6.61322 5.47157 6.7596 5.65853 6.75959H6.4555C6.62038 6.75959 6.76128 6.64486 6.78914 6.48792C6.80347 6.40722 6.81992 6.34025 6.83848 6.28702C6.88565 6.15172 6.95106 6.01911 7.03105 5.89481C7.20376 5.62642 7.55674 5.52048 7.96981 5.52048C8.39001 5.52048 8.85549 5.59074 9.06227 5.80904C9.26905 6.02733 9.3408 6.17362 9.3408 6.57137C9.3408 6.94422 8.76034 7.36231 8.58207 7.49072C8.57016 7.49929 8.56005 7.50657 8.55203 7.51246L8.1621 7.81048C7.77752 8.10327 7.53894 8.36206 7.44635 8.58688C7.39659 8.70772 7.34991 8.99564 7.30632 9.45065L7.30524 9.46569L7.30488 9.48077C7.30488 9.66132 7.45644 9.80769 7.6434 9.80769H8.40126C8.57687 9.80769 8.72332 9.67801 8.73851 9.50904C8.75246 9.35392 8.76864 9.24783 8.78705 9.19075C8.85471 8.98162 8.9918 8.79863 9.19834 8.64178L9.57758 8.35422C9.96217 8.06144 10.2221 7.82094 10.3574 7.63272C10.5889 7.3225 10.7046 6.94084 10.7046 6.48772C10.7046 5.74878 10.4384 5.1911 9.90608 4.81466ZM8.67355 10.7692C8.67355 10.5887 8.52199 10.4423 8.33503 10.4423H7.65801C7.47105 10.4423 7.31949 10.5887 7.31949 10.7692V11.4231C7.31949 11.6036 7.47105 11.75 7.65801 11.75H8.33503C8.52199 11.75 8.67355 11.6036 8.67355 11.4231V10.7692Z" fill="#8A909A"/>
</svg>
