<svg width="12" height="12" viewBox="0 0 12 12" fill="none" xmlns="http://www.w3.org/2000/svg">
<path fill-rule="evenodd" clip-rule="evenodd" d="M4.3335 1.46647C4.3335 1.09828 4.63197 0.799805 5.00016 0.799805H7.00016C7.36835 0.799805 7.66683 1.09828 7.66683 1.46647V1.63314C7.66683 1.90928 7.89069 2.13314 8.16683 2.13314H11.1335C11.3202 2.13314 11.4135 2.13314 11.4848 2.16947C11.5475 2.20143 11.5985 2.25242 11.6305 2.31514C11.6668 2.38645 11.6668 2.47979 11.6668 2.66647V2.93314C11.6668 3.11982 11.6668 3.21316 11.6305 3.28447C11.5985 3.34719 11.5475 3.39818 11.4848 3.43014C11.4135 3.46647 11.3202 3.46647 11.1335 3.46647H10.8335C10.5574 3.46647 10.3335 3.69033 10.3335 3.96647V10.4665C10.3335 10.8347 10.035 11.1331 9.66683 11.1331H2.3335C1.96531 11.1331 1.66683 10.8347 1.66683 10.4665V3.96647C1.66683 3.69033 1.44297 3.46647 1.16683 3.46647H0.866829C0.680145 3.46647 0.586803 3.46647 0.515499 3.43014C0.452779 3.39818 0.401785 3.34719 0.369827 3.28447C0.333496 3.21316 0.333496 3.11982 0.333496 2.93314V2.66647C0.333496 2.47979 0.333496 2.38645 0.369827 2.31514C0.401785 2.25242 0.452779 2.20143 0.515499 2.16947C0.586803 2.13314 0.680145 2.13314 0.866829 2.13314H3.8335C4.10964 2.13314 4.3335 1.90928 4.3335 1.63314V1.46647ZM4.00016 5.7998C4.00016 5.61571 4.1494 5.46647 4.3335 5.46647H5.00016C5.18426 5.46647 5.3335 5.61571 5.3335 5.7998V8.46647C5.3335 8.65057 5.18426 8.7998 5.00016 8.7998H4.3335C4.1494 8.7998 4.00016 8.65057 4.00016 8.46647V5.7998ZM6.66683 5.7998C6.66683 5.61571 6.81607 5.46647 7.00016 5.46647H7.66683C7.85092 5.46647 8.00016 5.61571 8.00016 5.7998V8.46647C8.00016 8.65057 7.85092 8.7998 7.66683 8.7998H7.00016C6.81607 8.7998 6.66683 8.65057 6.66683 8.46647V5.7998Z" fill="#4E5969"/>
<mask id="mask0" mask-type="alpha" maskUnits="userSpaceOnUse" x="0" y="0" width="12" height="12">
<path fill-rule="evenodd" clip-rule="evenodd" d="M4.3335 1.46647C4.3335 1.09828 4.63197 0.799805 5.00016 0.799805H7.00016C7.36835 0.799805 7.66683 1.09828 7.66683 1.46647V2.13314H11.1335C11.3202 2.13314 11.4135 2.13314 11.4848 2.16947C11.5475 2.20143 11.5985 2.25242 11.6305 2.31514C11.6668 2.38645 11.6668 2.47979 11.6668 2.66647V2.93314C11.6668 3.11982 11.6668 3.21316 11.6305 3.28447C11.5985 3.34719 11.5475 3.39818 11.4848 3.43014C11.4135 3.46647 11.3202 3.46647 11.1335 3.46647H10.3335V10.4665C10.3335 10.8347 10.035 11.1331 9.66683 11.1331H2.3335C1.96531 11.1331 1.66683 10.8347 1.66683 10.4665V3.46647H0.866829C0.680145 3.46647 0.586803 3.46647 0.515499 3.43014C0.452779 3.39818 0.401785 3.34719 0.369827 3.28447C0.333496 3.21316 0.333496 3.11982 0.333496 2.93314V2.66647C0.333496 2.47979 0.333496 2.38645 0.369827 2.31514C0.401785 2.25242 0.452779 2.20143 0.515499 2.16947C0.586803 2.13314 0.680145 2.13314 0.866829 2.13314H4.3335V1.46647ZM4.00016 5.7998C4.00016 5.61571 4.1494 5.46647 4.3335 5.46647H5.00016C5.18426 5.46647 5.3335 5.61571 5.3335 5.7998V8.46647C5.3335 8.65057 5.18426 8.7998 5.00016 8.7998H4.3335C4.1494 8.7998 4.00016 8.65057 4.00016 8.46647V5.7998ZM6.66683 5.7998C6.66683 5.61571 6.81607 5.46647 7.00016 5.46647H7.66683C7.85092 5.46647 8.00016 5.61571 8.00016 5.7998V8.46647C8.00016 8.65057 7.85092 8.7998 7.66683 8.7998H7.00016C6.81607 8.7998 6.66683 8.65057 6.66683 8.46647V5.7998Z" fill="white"/>
</mask>
<g mask="url(#mask0)">
</g>
</svg>
