<svg width="14" height="14" viewBox="0 0 14 14" fill="none" xmlns="http://www.w3.org/2000/svg">
<path fill-rule="evenodd" clip-rule="evenodd" d="M9.1 0C9.4866 0 9.8 0.313401 9.8 0.7L9.79965 1.39965L13.5513 1.4C13.7073 1.4 13.7639 1.41624 13.8209 1.44675C13.878 1.47725 13.9227 1.52201 13.9533 1.57905C13.9838 1.63609 14 1.69266 14 1.84868V2.35132C14 2.50734 13.9838 2.56391 13.9533 2.62095C13.9227 2.67799 13.878 2.72275 13.8209 2.75325C13.7639 2.78376 13.7073 2.8 13.5513 2.8L12.5997 2.79965L12.6 13.3C12.6 13.6866 12.2866 14 11.9 14H2.1C1.7134 14 1.4 13.6866 1.4 13.3L1.39965 2.79965L0.44868 2.8C0.292664 2.8 0.236089 2.78376 0.179052 2.75325C0.122015 2.72275 0.077252 2.67799 0.0467482 2.62095C0.0162445 2.56391 0 2.50734 0 2.35132V1.84868C0 1.69266 0.0162445 1.63609 0.0467482 1.57905C0.077252 1.52201 0.122015 1.47725 0.179052 1.44675C0.236089 1.41624 0.292664 1.4 0.44868 1.4L4.19965 1.39965L4.2 0.7C4.2 0.313401 4.5134 0 4.9 0H9.1ZM11.1996 2.79965H2.79965L2.8 12.6H11.2L11.1996 2.79965ZM5.95 4.9C6.1433 4.9 6.3 5.0567 6.3 5.25V10.15C6.3 10.3433 6.1433 10.5 5.95 10.5H5.25C5.0567 10.5 4.9 10.3433 4.9 10.15V5.25C4.9 5.0567 5.0567 4.9 5.25 4.9H5.95ZM8.75 4.9C8.9433 4.9 9.1 5.0567 9.1 5.25V10.15C9.1 10.3433 8.9433 10.5 8.75 10.5H8.05C7.8567 10.5 7.7 10.3433 7.7 10.15V5.25C7.7 5.0567 7.8567 4.9 8.05 4.9H8.75Z" fill="#1A2233"/>
</svg>
