
<svg width="24" height="24" viewBox="0 0 24 24" fill="none" xmlns="http://www.w3.org/2000/svg">
<path fill-rule="evenodd" clip-rule="evenodd" d="M12 24C18.6274 24 24 18.6274 24 12C24 5.37258 18.6274 0 12 0C5.62447 0 0.410203 4.97195 0.023056 11.25H6.80317C7.16709 8.70578 9.35515 6.75 12 6.75C14.8995 6.75 17.25 9.1005 17.25 12C17.25 14.8995 14.8995 17.25 12 17.25C9.62173 17.25 7.61282 15.6686 6.96741 13.5H4.5V15H2.25V13.5H0.0928402C0.830987 19.4195 5.88057 24 12 24ZM14.25 12C14.25 13.2426 13.2426 14.25 12 14.25C10.7574 14.25 9.75 13.2426 9.75 12C9.75 10.7574 10.7574 9.75 12 9.75C13.2426 9.75 14.25 10.7574 14.25 12Z" fill="#3f73f6"/>
</svg>
